<?xml version="1.0" encoding="UTF-8"?><svg xmlns="http://www.w3.org/2000/svg" viewBox="0 0 94.96 94.96"><defs><style>.d{fill:#005473;}.e{opacity:.4;stroke:#407183;stroke-width:1.39px;}.e,.f,.g,.h{fill:#fff;}.e,.i{stroke-miterlimit:10;}.g,.j{stroke-linecap:round;stroke-linejoin:round;stroke-width:1.75px;}.g,.j,.i{stroke:#005473;}.j{fill:#e4f3f6;}.k{fill:#e8eff4;}.h{opacity:.2;}.i{fill:none;stroke-width:1.82px;}</style></defs><g id="a"/><g id="b"><g id="c"><g><circle class="k" cx="47.48" cy="47.48" r="47.48"/><circle class="f" cx="47.48" cy="47.77" r="40.42"/><circle class="e" cx="54.49" cy="56.58" r="11.38"/><g><circle class="j" cx="54.49" cy="56.58" r="11.38"/><polyline class="j" points="60.61 19.37 60.61 30.24 70.78 30.24"/><path class="i" d="M70.78,30.06v39.95c0,2.09-1.69,3.78-3.78,3.78H29.7c-2.09,0-3.78-1.69-3.78-3.78V23.15c0-2.09,1.69-3.78,3.78-3.78h31.43l9.65,10.69Z"/><g><rect class="d" x="30.55" y="29.37" width="19.23" height="1.74"/><rect class="d" x="30.55" y="34.99" width="19.23" height="1.74"/><g><path class="d" d="M38.29,42.56h6.55l-3.15,5.45c-1.18-1.9-2.15-3.45-3.4-5.45Z"/><path class="d" d="M62.72,44.26c-1.15-1.93-2.08-3.49-3.19-5.35h6.4c-1.06,1.77-2.04,3.4-3.21,5.35Z"/><path class="d" d="M31.73,65.85c-.24,0-.48-.07-.69-.21-.53-.36-.65-1.06-.27-1.56l10.1-13.19c.2-.26,.5-.42,.84-.46,.34-.03,.67,.07,.92,.28l8.74,7.44,10.44-11.75c.42-.47,1.17-.54,1.67-.14,.5,.4,.57,1.1,.15,1.58l-11.23,12.64c-.21,.23-.51,.38-.83,.4-.32,.02-.64-.08-.88-.29l-8.67-7.38-9.32,12.18c-.23,.3-.6,.46-.96,.46Z"/></g></g><circle class="h" cx="54.49" cy="56.58" r="11.38"/><path class="g" d="M60.98,64.1c2.11-1.81,3.31-4.28,3.53-6.83,.22-2.56-.54-5.24-2.34-7.38-1.8-2.14-4.31-3.35-6.9-3.58-2.59-.22-5.24,.54-7.38,2.34-2.14,1.8-3.35,4.31-3.57,6.87s.54,5.27,2.34,7.42c1.8,2.14,4.27,3.35,6.87,3.57,2.56,.22,5.2-.54,7.34-2.31,0,0,.04-.03,.08-.03,0-.04,.04-.07,.04-.07h0Zm1.67,4.08l-1.1-1.31h0c-2.5,1.7-5.4,2.4-8.25,2.16-3.21-.28-6.36-1.8-8.59-4.5-2.24-2.66-3.2-5.98-2.92-9.23s1.8-6.36,4.46-8.59c2.66-2.24,6.02-3.2,9.23-2.92,3.25,.28,6.36,1.8,8.59,4.46,2.27,2.66,3.23,6.02,2.96,9.23-.25,2.85-1.44,5.58-3.54,7.75l1.1,1.31"/><path class="j" d="M63.39,65.84l.77,.91c.56-.26,1.16-.36,1.77-.31,.86,.07,1.73,.48,2.33,1.23l8.25,9.84c.6,.72,.86,1.61,.78,2.5h0c-.07,.86-.48,1.7-1.17,2.33h-.03c-.72,.6-1.64,.86-2.5,.78-.89-.08-1.73-.48-2.33-1.2l-8.25-9.84h0c-.63-.72-.88-1.64-.81-2.5,.05-.58,.26-1.18,.61-1.69l-.77-.91h0"/></g></g></g></g></svg>