<?xml version="1.0" encoding="UTF-8"?><svg id="a" xmlns="http://www.w3.org/2000/svg" viewBox="0 0 40.95 49.55"><defs><style>.b,.c{fill:#fff;}.d{fill:#a2d249;}.e{fill:#e4f3f6;}.e,.c{stroke:#005473;stroke-linecap:round;stroke-linejoin:round;stroke-width:1.86px;}</style></defs><path class="c" d="M26.54,.92H8.01c-1.54,0-2.79,1.25-2.79,2.79V45.86c0,1.54,1.25,2.79,2.79,2.79h29.26c1.54,0,2.79-1.25,2.79-2.79V12.77"/><rect class="d" y="19.3" width="27.35" height="14.98" rx="2.26" ry="2.26"/><path class="e" d="M26.65,.92V10.94c0,1.01,.82,1.83,1.83,1.83h11.58L26.65,.92Z"/><g><path class="b" d="M5.1,27.77v2.47c0,.11-.02,.21-.06,.31-.04,.09-.1,.18-.17,.25-.07,.07-.15,.13-.25,.17-.1,.04-.2,.06-.3,.06s-.21-.02-.31-.06c-.1-.04-.18-.1-.25-.17-.07-.07-.13-.15-.17-.25-.04-.09-.06-.2-.06-.31v-6.64c0-.11,.02-.21,.06-.31,.04-.09,.1-.18,.17-.25,.07-.07,.16-.13,.25-.17s.2-.06,.31-.06h2.11c.34,0,.67,.07,.97,.2,.3,.13,.57,.31,.79,.53,.23,.22,.4,.49,.53,.79,.13,.3,.2,.63,.2,.97s-.07,.67-.2,.97c-.13,.3-.31,.56-.53,.78-.23,.22-.49,.4-.79,.53-.3,.13-.63,.19-.97,.19h-1.33Zm0-3.39v1.8h1.33c.12,0,.23-.03,.34-.08,.11-.05,.21-.12,.29-.21,.08-.09,.15-.18,.2-.29,.05-.11,.08-.23,.08-.35s-.03-.23-.08-.34c-.05-.11-.12-.2-.2-.28-.08-.08-.18-.14-.29-.19-.11-.05-.22-.07-.34-.07h-1.33Z"/><path class="b" d="M12.18,22.82c.38,0,.75,.05,1.1,.14,.35,.1,.68,.23,.99,.41s.59,.39,.84,.64c.25,.25,.47,.53,.65,.83,.18,.3,.32,.63,.42,.99,.1,.35,.15,.72,.15,1.11s-.05,.75-.15,1.1c-.1,.35-.24,.68-.42,.98-.18,.3-.4,.58-.65,.82-.25,.25-.53,.46-.84,.63s-.64,.31-.99,.41c-.35,.1-.72,.14-1.1,.14h-1.42c-.11,0-.21-.02-.31-.06-.1-.04-.18-.1-.25-.17-.07-.07-.13-.15-.17-.25-.04-.09-.06-.2-.06-.31v-6.64c0-.11,.02-.21,.06-.31,.04-.09,.1-.18,.17-.25,.07-.07,.16-.13,.25-.17s.2-.06,.31-.06h1.42Zm2.55,4.12c0-.35-.07-.68-.2-.99-.13-.31-.31-.57-.54-.8-.23-.22-.5-.4-.81-.53-.31-.13-.64-.19-1-.19h-.64v5h.64c.36,0,.69-.06,1-.19,.31-.12,.58-.3,.81-.52,.23-.22,.41-.48,.54-.79,.13-.31,.2-.64,.2-1Z"/><path class="b" d="M21.27,22.82c.11,0,.21,.02,.3,.06s.18,.1,.25,.17c.07,.07,.13,.16,.17,.25,.04,.1,.06,.2,.06,.31s-.02,.21-.06,.31c-.04,.1-.1,.18-.17,.25-.07,.07-.15,.13-.25,.17-.1,.04-.2,.06-.3,.06h-2.38v1.74h1.54c.11,0,.21,.02,.31,.06,.1,.04,.18,.1,.25,.17,.07,.07,.13,.15,.17,.25,.04,.1,.06,.2,.06,.31s-.02,.21-.06,.3-.1,.17-.17,.24c-.07,.07-.15,.12-.25,.16-.1,.04-.2,.06-.31,.06h-1.54v2.55c0,.11-.02,.21-.06,.31-.04,.09-.1,.18-.17,.25-.07,.07-.15,.13-.25,.17-.1,.04-.2,.06-.3,.06s-.21-.02-.31-.06c-.1-.04-.18-.1-.25-.17-.07-.07-.13-.15-.16-.25-.04-.09-.06-.2-.06-.31v-6.66c0-.08,.02-.17,.05-.26,.03-.09,.07-.17,.13-.25,.06-.07,.14-.13,.24-.18s.22-.07,.37-.07h3.16Z"/></g></svg>