<?xml version="1.0" encoding="UTF-8"?><svg id="a" xmlns="http://www.w3.org/2000/svg" viewBox="0 0 77.88 83.62"><defs><style>.b{fill:#005473;}.c{fill:#fff;stroke:#005473;stroke-linecap:round;stroke-linejoin:round;stroke-width:2.7px;}</style></defs><g><path class="c" d="M38.03,67.3c-2.13,0-4.26,0-6.4,0-2.28,0-3.16-.83-3.23-3.07-.12-3.58-1.57-6.65-3.47-9.59-1.82-2.81-3.8-5.56-5.2-8.58-3.66-7.92-1.31-17.38,5.43-23,6.48-5.4,15.83-6.17,22.93-1.69,7.92,5.01,11.3,14.31,8.41,23.29-1.09,3.39-2.87,6.39-4.92,9.25-2.32,3.24-3.82,6.74-3.84,10.8-.01,1.6-1.09,2.48-2.92,2.51-2.26,.04-4.52,0-6.77,0v.07Z"/><path class="b" d="M40.62,78.91c.78,0,1.56-.02,2.35,0,.81,.03,1.08,.51,.76,1.26-.93,2.22-4.11,3.8-6.48,3.37-1.79-.33-3.28-1.07-4.45-2.48-.81-.97-.62-1.59,.63-1.85,.18-.04,.36-.08,.55-.09,1.13-.03,2.25-.02,3.38-.06,1.09-.04,2.18-.13,3.26-.2v.04Z"/><path class="b" d="M43.28,69.69c.52,0,.96,.01,1.39,0,.79-.02,1.35,.28,1.44,1.12,.08,.69-.53,1.32-1.34,1.4-.74,.08-1.49,.14-2.23,.16-3.34,.09-6.68,.17-10.03,.24-.64,.01-1.34,.14-1.92-.05-.48-.16-1.12-.69-1.15-1.1-.03-.38,.63-.84,1.04-1.21,.16-.14,.47-.14,.71-.14,2.84-.08,5.68-.14,8.52-.23,1.22-.04,2.43-.12,3.57-.18Z"/><path class="b" d="M43.2,76.7c-3.68,.19-7.36,.38-11.05,.56-.47,.02-.95,.06-1.41,0-.59-.09-1.03-.37-1.09-1.08-.05-.71,.23-1.16,.88-1.35,.41-.12,.85-.19,1.28-.2,2.31-.08,4.63-.14,6.94-.21,1.94-.06,3.88-.14,5.81-.17,.76-.01,1.46,.15,1.56,1.09,.09,.79-.44,1.38-1.25,1.4-.56,.01-1.13,0-1.69,0v-.04Z"/><path class="b" d="M67.32,66.71c-1.18,.04-2.16-.15-2.99-1.08-1.8-2.04-3.71-3.98-5.51-6.03-.42-.48-.62-1.19-.83-1.83-.17-.53,.06-.91,.57-1.23,.54-.34,.92-.11,1.24,.21,1.62,1.66,3.21,3.34,4.8,5.02,.6,.64,1.13,1.34,1.76,1.95,.83,.81,1.16,1.75,.96,2.98Z"/><path class="b" d="M18.8,55.38c-.09,1.1-.4,2.04-1.35,2.75-2.12,1.61-4.17,3.32-6.3,4.92-.51,.38-1.04,1.11-1.88,.63-1.05-.61-1.13-1.64-.15-2.43,2.15-1.73,4.32-3.43,6.49-5.14,.22-.17,.47-.32,.67-.52,.74-.74,1.55-.86,2.52-.22Z"/><path class="b" d="M77.88,37.67c-.78,1.07-1.77,1.34-3,1.26-2.34-.16-4.7-.23-7.05-.27-1.09-.02-1.86-.41-2.34-1.41,.52-1.05,1.41-1.37,2.54-1.31,2.32,.11,4.64,.16,6.95,.28,1.72,.08,1.71,.11,2.89,1.46Z"/><path class="b" d="M58.29,19.78c.01-1.08,.28-1.97,1.17-2.67,1.96-1.52,3.85-3.11,5.8-4.63,.93-.73,2.11-.6,2.51,.22,.11,.23,.14,.62,.02,.84-.23,.43-.54,.86-.92,1.17-1.8,1.46-3.66,2.85-5.45,4.33-.92,.76-1.91,1.01-3.14,.75Z"/><path class="b" d="M20.71,18.29c-1.11,.18-2.03,0-2.83-.77-1.68-1.6-3.43-3.12-5.09-4.74-.88-.86-.83-2.02-.08-2.61,.43-.34,.77-.33,1.15,.01,1.35,1.21,2.72,2.4,4.06,3.62,.56,.5,1.06,1.07,1.62,1.57,.87,.77,1.18,1.73,1.17,2.92Z"/><path class="b" d="M11.73,34.87c-.66,1.25-1.49,1.53-2.57,1.46-2.56-.15-5.12-.23-7.68-.31-.81-.03-1.31-.45-1.47-1.18-.12-.54,.79-1.43,1.5-1.41,2.84,.07,5.69,.14,8.52,.36,.6,.05,1.15,.71,1.7,1.08Z"/><path class="b" d="M40.18,0c1.29,.44,1.8,1.1,1.72,2.32-.17,2.53-.23,5.07-.31,7.61-.03,1.03-.92,1.14-1.52,1.6-.75-.57-1.14-1.25-1.1-2.18,.12-2.5,.17-5.01,.37-7.51,.05-.64,.55-1.24,.83-1.84Z"/></g><path class="b" d="M37.55,34.49c-.17-.16-.38-.36-.58-.55-2.7-2.62-6.46-2.88-9.32-.64-2.93,2.3-3.6,5.99-1.56,9.24,.91,1.45,1.95,2.84,3.06,4.15,2.59,3.08,5.62,5.7,8.62,8.23,2.73-2.69,5.49-5.25,8.06-7.98,1.38-1.47,2.57-3.15,3.63-4.88,1.59-2.61,1.2-5.69-.77-7.84-2.13-2.33-5.41-3.11-8.13-1.79-1.05,.51-1.95,1.32-3.02,2.06Z"/></svg>