<svg xmlns="http://www.w3.org/2000/svg" viewBox="0 0 45.21 45.21"><defs><style>.cls-1{fill:#64ac9a;}.cls-2{fill:#559583;}.cls-3{fill:#5ea397;}.cls-4{fill:#fff;}</style></defs><title>facebook</title><g id="Capa_2" data-name="Capa 2"><g id="Capa_1-2" data-name="Capa 1"><path class="cls-1" d="M43.84,6.34A11.84,11.84,0,0,0,33.38,0H11.83A11.86,11.86,0,0,0,0,11.83V18.5c6.1-5,11.88-11,18.43-13.21C26.9,2.47,35.37,5.37,43.84,6.34Z"/><path class="cls-2" d="M40.07,25.39A54.86,54.86,0,0,1,5.71,43.48a11.73,11.73,0,0,0,6.12,1.73h7.24l3.27-.92,3.8.92h7.24A11.86,11.86,0,0,0,45.21,33.38V21.56C42.8,22.67,40.85,23.84,40.07,25.39Z"/><path class="cls-3" d="M43.84,6.34c-8.47-1-16.94-3.87-25.41-1C11.88,7.48,6.1,13.51,0,18.5V33.38a11.85,11.85,0,0,0,5.71,10.1A54.86,54.86,0,0,0,40.07,25.39c.78-1.55,2.73-2.72,5.14-3.83V11.83A11.69,11.69,0,0,0,43.84,6.34Z"/><path class="cls-4" d="M31.4,29.88l1-6.53H26.14V19.11c0-1.79.87-3.53,3.68-3.53h2.85V10a34.93,34.93,0,0,0-5.06-.44c-5.16,0-8.54,3.13-8.54,8.8v5H13.33v6.53h5.74V45.21h7.07V29.88Z"/></g></g></svg>