<svg xmlns="http://www.w3.org/2000/svg" viewBox="0 0 45.21 45.21"><defs><style>.cls-1{fill:#559583;}.cls-2{fill:#64ac9a;}.cls-3{fill:#5ea397;}.cls-4{fill:#fff;}</style></defs><title>footer twitter</title><g id="Capa_2" data-name="Capa 2"><g id="Capa_1-2" data-name="Capa 1"><path class="cls-1" d="M33.38,45.21A11.86,11.86,0,0,0,45.21,33.38V28C34.75,34.75,24,41.67,12.66,45.21Z"/><path class="cls-2" d="M42.6,4.45A11.8,11.8,0,0,0,33.38,0H11.83A11.86,11.86,0,0,0,0,11.83v11a14.34,14.34,0,0,0,5.68-2.08C18.42,13.8,29.43,4.25,42.6,4.45Z"/><path class="cls-3" d="M42.6,4.45c-13.17-.2-24.18,9.35-36.92,16.3A14.34,14.34,0,0,1,0,22.83V33.38A11.86,11.86,0,0,0,11.83,45.21h.83C24,41.67,34.75,34.75,45.21,28V11.83A11.74,11.74,0,0,0,42.6,4.45Z"/><path class="cls-4" d="M35.09,14.86a10.15,10.15,0,0,1-2.49.71c.4-.07,1-.79,1.23-1.09A4.27,4.27,0,0,0,34.65,13a.09.09,0,0,0,0-.13.12.12,0,0,0-.13,0,13.1,13.1,0,0,1-3,1.13.18.18,0,0,1-.2-.06,3.19,3.19,0,0,0-.26-.26,5.57,5.57,0,0,0-1.43-.88,5.1,5.1,0,0,0-4.28.24,5.28,5.28,0,0,0-2.69,3.38,5.41,5.41,0,0,0-.05,2.12c0,.12,0,.14-.1.12a15.78,15.78,0,0,1-10.16-5.17c-.12-.13-.18-.13-.28,0A5.14,5.14,0,0,0,13,19.58c.2.19.4.37.62.55a5.31,5.31,0,0,1-2-.55c-.12-.08-.18,0-.19.1a3.89,3.89,0,0,0,0,.58,5.2,5.2,0,0,0,3.21,4.15,2.64,2.64,0,0,0,.66.2,5.69,5.69,0,0,1-1.93.06c-.14,0-.19,0-.14.18a5.41,5.41,0,0,0,4,3.38,4.85,4.85,0,0,1,.55.08s0,0,0,0c-.45.69-2,1.21-2.76,1.46a9.79,9.79,0,0,1-4.19.54c-.22,0-.27,0-.33,0s0,.09.06.15c.29.19.58.35.88.52a13.88,13.88,0,0,0,2.8,1.12,14.93,14.93,0,0,0,14.48-3.39c3-2.95,4-7,4-11.09,0-.15.19-.24.3-.33a9.63,9.63,0,0,0,2-2.05.68.68,0,0,0,.13-.39v0C35.2,14.79,35.19,14.81,35.09,14.86Z"/></g></g></svg>