<?xml version="1.0" encoding="UTF-8"?><svg xmlns="http://www.w3.org/2000/svg" xmlns:xlink="http://www.w3.org/1999/xlink" viewBox="0 0 182.03 68.56"><defs><style>.n{fill:#fff;}.o{fill:url(#l);}.p{isolation:isolate;}.q{mask:url(#g);}.r{fill:url(#m);}.s{fill:#00a19b;}.t{mix-blend-mode:multiply;opacity:.8;}.u{clip-path:url(#b);}.v{mask:url(#k);}.w{clip-path:url(#c);}.x{fill:url(#i);}.y{clip-path:url(#e);}.a`{clip-path:url(#d);}.aa{fill:url(#h);}.ab{fill:none;}.ac{fill:#7a6569;}.ad{clip-path:url(#f);}.ae{clip-path:url(#j);}.af{fill:#c2d500;}.ag{fill:#006e96;}</style><clipPath id="b"><rect class="ab" x="-241.98" y="-462.95" width="1360" height="328.1"/></clipPath><clipPath id="c"><rect class="ab" x="-241.98" y="-459.86" width="1360" height="319.01"/></clipPath><clipPath id="d"><rect class="ab" x="-247.29" y="-868.55" width="1373.37" height="777.27"/></clipPath><clipPath id="e"><rect class="ab" x="-249.2" y="-469.47" width="448.17" height="451.21"/></clipPath><clipPath id="f"><path class="ab" d="M63.04-18.41c.49-1.07,1.53-1.52,2.44-2.09,1.68-1.05,2.71-2.39,2.44-4.52-.13-1.01-.02-2.05-.02-3.38,1.07,.83,1.37,1.83,1.79,2.71,.43,.9,.92,1.14,1.69,.43,2.2-2.02,4.33-4.11,6.29-6.36,.66-.76,.62-1.71,.44-2.63-.32-1.56-.68-3.11-1.11-5.05,1.13,1.19,1.69,2.29,2.19,3.41,.41,.9,.84,1.01,1.44,.16,2.4-3.43,4.17-7.15,4.93-11.27,.32-1.75-.92-3.13-1.72-4.56-.41-.72-.98-1.36-1.51-2.08,.86-.34,1.38,.13,1.92,.38,1.81,.81,2.02,.72,1.91-1.18-.24-4.26-1.54-8.22-3.68-11.89-.54-.92-.97-1.96-2.19-2.78-1.21,14.95-9.29,26.5-17.71,37.89-.13-.06-.26-.12-.4-.18,.36-.74,.71-1.48,1.08-2.21,4.34-8.55,8.38-17.24,11.09-26.47,1-3.41,1.86-6.87,1.84-10.47,0-1.29-.55-1.77-1.8-1.6-6.01,.79-11.84,2.19-17.31,4.89-.48,.24-1.31,.4-1.17,1.06,.13,.62,.97,.46,1.49,.52,2.35,.3,4.74,.39,7,1.27-3.03,.2-6.04,.12-9.05,.53-5.54,.75-6.39,2.6-7.8,7.88-1.04,3.89-.36,7.87-.04,11.81,.09,1.13,.61,1.17,1.49,.66,.92-.53,1.73-1.31,3.04-1.5-.26,1.24-1.17,1.81-1.89,2.41-1.73,1.45-2.33,3.09-1.74,5.33,.51,1.93,.69,3.95,1.07,5.92,.12,.6,.13,1.41,.74,1.65,.71,.28,1.02-.57,1.48-.95,.72-.59,1.29-1.42,2.51-1.71-.5,1.73-1.46,2.95-2.22,4.24-.97,1.65-1.24,3.25-.6,5.08,.53,1.51,.87,3.09,1.3,4.64h10.33Z"/></clipPath><linearGradient id="h" x1="1133.86" y1="1152.57" x2="1135.2" y2="1152.57" gradientTransform="translate(-459541.87 452008.88) rotate(-90) scale(398.77)" gradientUnits="userSpaceOnUse"><stop offset="0" stop-color="#000"/><stop offset="1" stop-color="#fff"/></linearGradient><mask id="g" x="20.89" y="-91.22" width="91" height="91.69" maskUnits="userSpaceOnUse"><rect class="aa" x="32.91" y="-77.28" width="66.97" height="63.83" transform="translate(64.08 35.01) rotate(-54.01)"/></mask><linearGradient id="i" x1="1133.86" y1="1152.57" x2="1135.2" y2="1152.57" gradientTransform="translate(-459541.87 452008.88) rotate(-90) scale(398.77)" gradientUnits="userSpaceOnUse"><stop offset="0" stop-color="#fff"/><stop offset="1" stop-color="#324e79"/></linearGradient><clipPath id="j"><path class="ab" d="M113.36-49.78c-3.42,2.63-6.16,5.78-8.04,9.71-.66,1.37-1.44,2.75-2.67,3.75v-.02c-.85,1.63-2.34,2.63-3.75,3.71-.55,.42-1.19,.78-1.91,.64-3.47-.65-6.46,.63-9.25,2.43-2.88,1.86-5.48,4.07-7.59,6.91,3.52-2.46,7.63-2.15,11.55-2.7,2.42-.33,4.28-1.58,5.49-3.73,.68-1.2,1.65-2.01,3.26-2.67-1.03,1.51-1.94,2.71-2.7,3.99-1.54,2.59-1.17,5.17,.27,7.67,.49,.85,1.07,1.12,1.53-.02,.77-1.9,2.34-3.03,3.88-4.26,2.36-1.89,4.54-3.99,4.1-7.46-.26-2.06-1.25-3.19-3.1-3.36,2.63-4.66,5.45-9.03,10.28-11.66,.29-.16,.6-.44,.93-.15,.27,.24,.07,.54-.06,.78-.96,1.88-.47,3.69,.25,5.49,.91,2.28,2.1,4.47,2.15,7.02,0,.44,.25,.88,.44,1.3,.16,.36,.32,.8,.78,.84,.54,.04,.6-.48,.71-.83,.44-1.46,1.77-2.23,2.58-3.41,3.33-4.83,2.71-8.14-2.18-11.41-.56-.38-1.13-.74-2-1.31,2.98-1.28,5.8-2.02,8.73-2.47,4.05-.62,6.45,1.6,8.41,4.65,2.17,3.37,4.86,6.09,8.81,7.31,.82,.25,.95,.67,.43,1.39-.6,.83-1.13,1.72-1.65,2.61-.13,.21-.17,.59-.07,.79,.17,.34,.51,.15,.75,.01,3.31-1.92,6.59-1.28,9.93-.01,4.4,1.66,10-1.12,11.29-5.53,.17-.59,.52-1.3,.05-1.8-.47-.49-1.08,.03-1.59,.21-5.15,1.81-9.6,.51-13.49-3.08-1.11-1.03-2.32-2.01-3.09-3.56,.99-.21,1.34,.5,1.76,.93,4.14,4.33,9.26,5.43,14.98,4.65,.38-.05,.89,.06,1.06-.4,.18-.5-.34-.68-.62-.92-.91-.79-1.36-1.82-1.68-2.94-.91-3.14-1.91-6.25-3.15-9.29-2.69-6.59-8.02-7.53-14.05-6.03-.97,.24-.94,.64-.17,1.21,.44,.33,.76,.82,1.07,1.17-.16,.54-.49,.52-.75,.47-4.78-1.01-8.8,.77-12.53,3.47-1.27,.91-2.38,1.42-4.13,1.36-4.53-.17-8.83,1.19-12.87,3.27-.66,.34-1.35,.62-2.03,.92-.11,.11-.22,.22-.33,.33"/></clipPath><linearGradient id="l" x1="1133.86" y1="1152.59" x2="1135.2" y2="1152.59" gradientTransform="translate(-459494.03 451964.86) rotate(-90) scale(398.77)" xlink:href="#h"/><mask id="k" x="58.97" y="-104.05" width="127.66" height="125.66" maskUnits="userSpaceOnUse"><rect class="o" x="79.71" y="-88.81" width="86.17" height="95.19" transform="translate(83.98 82.36) rotate(-54.01)"/></mask><linearGradient id="m" x1="1133.86" y1="1152.59" x2="1135.2" y2="1152.59" gradientTransform="translate(-459494.03 451964.86) rotate(-90) scale(398.77)" xlink:href="#i"/></defs><g class="p"><g id="a"><g><g><path class="n" d="M79.65,19.9c.11,.13,.16,.29,.16,.46,0,.13-.05,.24-.14,.33s-.21,.15-.35,.16c-.14-.03-.24-.07-.29-.11-.18-.13-.36-.26-.53-.39s-.37-.23-.59-.32c-.22-.08-.49-.13-.8-.14-.69,0-1.26,.19-1.72,.58-.46,.39-.79,.87-.99,1.44-.21,.58-.32,1.15-.33,1.72,0,.53,.08,1.09,.25,1.68,.17,.59,.46,1.11,.89,1.55s.99,.67,1.71,.69c.47,0,.86-.06,1.16-.18,.3-.12,.67-.31,1.09-.55,.12-.07,.25-.11,.39-.11s.25,.05,.33,.15,.12,.22,.12,.37c0,.2-.06,.35-.18,.44-.34,.32-.78,.55-1.3,.69-.52,.14-1.03,.21-1.53,.21-.73,0-1.37-.16-1.91-.46s-.97-.68-1.31-1.16c-.34-.48-.58-.98-.74-1.53-.16-.54-.24-1.07-.24-1.57,0-.67,.09-1.3,.27-1.9,.18-.6,.44-1.13,.8-1.59s.8-.82,1.33-1.09c.53-.27,1.14-.4,1.82-.41,.32,0,.65,.04,.99,.11,.34,.08,.65,.19,.94,.34s.53,.34,.71,.56Z"/><path class="n" d="M80.81,24.94c0-.69,.13-1.32,.4-1.88,.27-.56,.64-.99,1.12-1.31s1.02-.47,1.62-.47c.63,0,1.18,.18,1.66,.51s.84,.78,1.09,1.33c.25,.56,.38,1.16,.38,1.8s-.13,1.27-.38,1.82-.62,1-1.09,1.33c-.47,.33-1.03,.49-1.66,.49s-1.19-.17-1.67-.5c-.48-.33-.84-.78-1.1-1.33-.25-.56-.38-1.16-.38-1.81Zm1.18,0c0,.67,.16,1.28,.47,1.82,.31,.54,.8,.81,1.47,.81,.44,0,.8-.12,1.1-.36s.51-.55,.66-.95c.14-.4,.22-.84,.23-1.32,0-.48-.07-.92-.22-1.32-.15-.4-.37-.72-.66-.96-.29-.24-.65-.36-1.07-.36s-.77,.11-1.07,.34c-.3,.23-.52,.54-.67,.94-.15,.4-.23,.85-.23,1.35Z"/><path class="n" d="M88.29,21.92c0-.19,.06-.33,.17-.44s.25-.16,.41-.16,.3,.05,.42,.16c.11,.11,.17,.26,.17,.44v.6h.03c.17-.31,.4-.59,.69-.84,.28-.25,.58-.38,.89-.39,.17,0,.33,.06,.46,.17,.13,.12,.2,.26,.2,.43,0,.2-.07,.35-.21,.44-.14,.09-.34,.18-.6,.24s-.43,.12-.51,.17c-.63,.35-.95,.94-.95,1.78v3.45c0,.19-.05,.34-.16,.45-.11,.11-.24,.16-.4,.16-.17,0-.31-.06-.43-.17s-.17-.27-.17-.46v-6.04Z"/><path class="n" d="M93.7,27.62v3.15c0,.23-.05,.4-.16,.52-.11,.12-.24,.18-.42,.18-.16,0-.3-.06-.41-.19-.12-.13-.18-.29-.18-.49v-8.89c0-.2,.06-.35,.17-.46,.11-.11,.24-.17,.4-.17,.17,0,.31,.05,.43,.16,.12,.11,.17,.25,.17,.44v.36h.03c.32-.62,.91-.94,1.78-.96,.47,0,.9,.09,1.29,.26,.39,.18,.72,.42,1,.74,.28,.32,.49,.7,.64,1.14s.23,.93,.23,1.45c0,.68-.13,1.31-.38,1.87-.25,.56-.61,1.01-1.07,1.33-.46,.33-.99,.49-1.58,.49-.8,0-1.43-.32-1.91-.96h-.03Zm3.8-2.68c0-.45-.07-.87-.2-1.27s-.34-.72-.62-.97-.63-.38-1.04-.4c-.49,0-.89,.13-1.19,.38-.3,.25-.52,.58-.65,.97s-.2,.81-.21,1.26c0,.81,.18,1.45,.54,1.93,.36,.48,.82,.73,1.39,.74,.04-.02,.07-.03,.11-.03,.4-.03,.74-.15,1.02-.38s.49-.54,.64-.92c.14-.39,.22-.83,.23-1.32Z"/><path class="n" d="M99.62,24.94c0-.69,.13-1.32,.4-1.88,.27-.56,.64-.99,1.12-1.31s1.02-.47,1.62-.47c.63,0,1.18,.18,1.66,.51s.84,.78,1.09,1.33c.25,.56,.38,1.16,.38,1.8s-.13,1.27-.38,1.82-.62,1-1.09,1.33c-.47,.33-1.03,.49-1.66,.49s-1.19-.17-1.67-.5c-.48-.33-.84-.78-1.1-1.33-.25-.56-.38-1.16-.38-1.81Zm1.18,0c0,.67,.16,1.28,.47,1.82,.31,.54,.8,.81,1.47,.81,.44,0,.8-.12,1.1-.36s.51-.55,.66-.95c.14-.4,.22-.84,.23-1.32,0-.48-.07-.92-.22-1.32-.15-.4-.37-.72-.66-.96-.29-.24-.65-.36-1.07-.36s-.77,.11-1.07,.34c-.3,.23-.52,.54-.67,.94-.15,.4-.23,.85-.23,1.35Z"/><path class="n" d="M107.1,21.92c0-.19,.06-.33,.17-.44s.25-.16,.41-.16,.3,.05,.42,.16c.11,.11,.17,.26,.17,.44v.6h.03c.17-.31,.4-.59,.69-.84,.28-.25,.58-.38,.89-.39,.17,0,.33,.06,.46,.17,.13,.12,.2,.26,.2,.43,0,.2-.07,.35-.21,.44-.14,.09-.34,.18-.6,.24s-.43,.12-.51,.17c-.63,.35-.95,.94-.95,1.78v3.45c0,.19-.05,.34-.16,.45-.11,.11-.24,.16-.4,.16-.17,0-.31-.06-.43-.17s-.17-.27-.17-.46v-6.04Z"/><path class="n" d="M116.08,22.25v-.39c0-.17,.05-.31,.16-.42,.11-.11,.24-.16,.39-.16s.29,.05,.39,.16c.11,.11,.16,.26,.16,.44v6.09c0,.2-.05,.35-.16,.45-.1,.1-.24,.15-.39,.15-.15,0-.28-.05-.39-.15-.11-.1-.16-.23-.16-.4v-.52h-.03c-.5,.69-1.12,1.05-1.86,1.07-.6,0-1.14-.15-1.64-.45s-.88-.72-1.16-1.27-.42-1.18-.42-1.9c0-.8,.15-1.48,.46-2.04,.31-.56,.7-.97,1.17-1.24,.47-.27,.95-.41,1.43-.41,.43,0,.8,.08,1.1,.22s.61,.4,.91,.74h.03Zm-3.92,2.69c0,.46,.07,.89,.21,1.29,.14,.4,.35,.72,.64,.97,.28,.25,.63,.37,1.04,.37,.72,0,1.23-.26,1.54-.77,.31-.51,.47-1.13,.47-1.86,0-.53-.08-1-.24-1.4-.16-.4-.39-.71-.68-.92-.29-.21-.63-.32-1-.32h-.03c-.64,.02-1.12,.28-1.44,.76-.32,.48-.49,1.11-.5,1.88Z"/><path class="n" d="M123.51,21.94c.03,.11,.05,.19,.05,.25,0,.13-.05,.25-.14,.34-.1,.09-.22,.14-.38,.16-.04-.01-.18-.06-.4-.13s-.41-.13-.55-.17c-.14-.04-.29-.06-.44-.06-.43,0-.79,.12-1.09,.36-.3,.24-.53,.56-.68,.94-.16,.38-.24,.79-.26,1.21,0,.64,.14,1.24,.41,1.79,.28,.55,.75,.86,1.42,.93,.09,0,.16,0,.2,.03,.1,0,.21-.02,.32-.04,.11-.02,.2-.05,.27-.07,.07-.03,.16-.06,.27-.11,.11-.05,.2-.09,.26-.11,.11-.05,.21-.08,.3-.08,.13,0,.23,.05,.32,.14,.08,.09,.13,.21,.13,.36,0,.35-.2,.59-.61,.72-.41,.14-.82,.2-1.25,.2-.64,0-1.21-.16-1.69-.47-.48-.31-.85-.73-1.11-1.27-.26-.53-.39-1.11-.41-1.74,0-.5,.06-.98,.18-1.43s.31-.85,.57-1.21c.25-.35,.59-.63,.99-.84,.41-.21,.88-.32,1.41-.33,.48,0,.9,.07,1.24,.2s.57,.28,.67,.46Z"/><path class="n" d="M125.26,20.35c-.2,0-.37-.07-.52-.22s-.22-.32-.22-.51,.07-.36,.22-.51c.14-.15,.32-.22,.52-.22s.37,.07,.51,.22c.14,.15,.21,.32,.21,.52s-.07,.37-.22,.52-.31,.22-.51,.22Zm-.58,1.57c0-.2,.06-.35,.17-.46,.11-.11,.25-.17,.41-.17s.3,.05,.42,.16,.17,.26,.17,.44v6.09c0,.19-.06,.34-.17,.44-.12,.11-.25,.16-.41,.16s-.29-.05-.4-.16c-.11-.11-.17-.26-.17-.44v-6.06Z"/><path class="n" d="M127.08,24.94c0-.69,.13-1.32,.4-1.88,.27-.56,.64-.99,1.12-1.31s1.02-.47,1.62-.47c.63,0,1.18,.18,1.66,.51s.84,.78,1.09,1.33c.25,.56,.38,1.16,.38,1.8s-.13,1.27-.38,1.82-.62,1-1.09,1.33c-.47,.33-1.03,.49-1.66,.49s-1.19-.17-1.67-.5c-.48-.33-.84-.78-1.1-1.33-.25-.56-.38-1.16-.38-1.81Zm1.18,0c0,.67,.16,1.28,.47,1.82,.31,.54,.8,.81,1.47,.81,.44,0,.8-.12,1.1-.36s.51-.55,.66-.95c.14-.4,.22-.84,.23-1.32,0-.48-.07-.92-.22-1.32-.15-.4-.37-.72-.66-.96-.29-.24-.65-.36-1.07-.36s-.77,.11-1.07,.34c-.3,.23-.52,.54-.67,.94-.15,.4-.23,.85-.23,1.35Zm1.02-5.67l1.58-.64c.06-.03,.16-.05,.31-.05s.27,.05,.38,.16c.11,.1,.17,.23,.17,.36,0,.22-.15,.38-.44,.5l-1.57,.66c-.07,.03-.2,.05-.4,.07-.15,0-.28-.04-.38-.13-.1-.09-.16-.2-.17-.34,.03-.26,.21-.45,.52-.58Z"/><path class="n" d="M134.56,21.92c0-.2,.06-.35,.17-.46,.11-.11,.25-.17,.41-.17s.3,.06,.42,.16c.11,.11,.17,.26,.17,.46v.28l.03,.03c.23-.3,.51-.53,.85-.69,.34-.16,.7-.24,1.09-.24,.44,0,.85,.1,1.24,.3,.38,.2,.69,.51,.92,.91,.23,.41,.35,.91,.35,1.5v3.97c0,.18-.06,.32-.17,.42-.11,.1-.25,.15-.42,.15s-.29-.05-.41-.15c-.11-.1-.17-.24-.17-.42v-3.95c0-.53-.16-.95-.49-1.25-.33-.3-.71-.45-1.16-.45-.29,0-.56,.07-.81,.2-.25,.13-.46,.33-.61,.59-.16,.26-.23,.58-.23,.94v3.92c0,.2-.05,.36-.16,.47-.11,.11-.24,.16-.4,.16s-.3-.06-.42-.18c-.12-.12-.18-.27-.18-.46v-6.06Z"/><path class="n" d="M74.28,41.12l-.63,1.73c-.08,.28-.28,.41-.6,.41-.15,0-.28-.04-.38-.12-.1-.08-.16-.2-.17-.35,.01-.05,.02-.11,.04-.17,.02-.06,.03-.11,.04-.15l3.08-8.23c.08-.23,.19-.4,.34-.52,.15-.12,.31-.18,.48-.18,.19,0,.35,.06,.5,.18,.15,.12,.26,.29,.33,.5l3.12,8.26c.03,.14,.05,.26,.05,.35,0,.15-.05,.26-.15,.35-.1,.08-.23,.12-.4,.12-.13,0-.26-.04-.37-.11s-.19-.18-.23-.33l-.63-1.73h-4.41Zm.36-1.02h3.71l-1.85-5.18h-.03l-1.83,5.18Z"/><path class="n" d="M81.36,36.57c0-.19,.06-.33,.17-.44s.25-.16,.41-.16,.3,.05,.42,.16,.17,.26,.17,.44v3.9c0,.54,.14,.98,.41,1.3,.27,.32,.68,.48,1.22,.48,1.12,0,1.67-.59,1.67-1.78v-3.9c0-.19,.06-.33,.17-.44s.25-.16,.41-.16,.3,.05,.42,.16,.17,.26,.17,.44v3.92c0,.49-.1,.95-.29,1.37-.2,.42-.51,.76-.94,1.02-.43,.26-.97,.39-1.63,.39-.62,0-1.14-.13-1.55-.38-.41-.25-.72-.59-.92-1.01-.2-.42-.3-.88-.3-1.39v-3.92Z"/><path class="n" d="M88.88,37.06h-.52c-.17,0-.3-.05-.4-.14-.1-.09-.16-.21-.18-.35,.03-.35,.23-.52,.58-.52h.52v-1.59c0-.17,.06-.31,.17-.41,.11-.1,.25-.14,.41-.14,.17,0,.31,.05,.43,.15s.17,.24,.17,.43v1.57h.52c.18,0,.31,.05,.41,.14,.09,.1,.14,.22,.14,.38,0,.13-.05,.25-.14,.35-.09,.1-.21,.15-.36,.15h-.58v5.62c0,.18-.06,.32-.18,.42-.12,.1-.27,.16-.44,.16-.15,0-.28-.05-.39-.16-.11-.1-.16-.25-.16-.45v-5.59Z"/><path class="n" d="M91.41,39.62c0-.69,.13-1.32,.4-1.88,.27-.56,.64-.99,1.12-1.31s1.02-.47,1.62-.47c.63,0,1.18,.18,1.66,.51s.84,.78,1.09,1.33c.25,.56,.38,1.16,.38,1.8s-.13,1.27-.38,1.82-.62,1-1.09,1.33c-.47,.33-1.03,.49-1.66,.49s-1.19-.17-1.67-.5c-.48-.33-.84-.78-1.1-1.33-.25-.56-.38-1.16-.38-1.81Zm1.18,0c0,.67,.16,1.28,.47,1.82,.31,.54,.8,.81,1.47,.81,.44,0,.8-.12,1.1-.36s.51-.55,.66-.95c.14-.4,.22-.84,.23-1.32,0-.48-.07-.92-.22-1.32-.15-.4-.37-.72-.66-.96-.29-.24-.65-.36-1.07-.36s-.77,.11-1.07,.34c-.3,.23-.52,.54-.67,.94-.15,.4-.23,.85-.23,1.35Zm1.02-5.67l1.58-.64c.06-.03,.16-.05,.31-.05s.27,.05,.38,.16c.11,.1,.17,.23,.17,.36,0,.22-.15,.38-.44,.5l-1.57,.66c-.07,.03-.2,.05-.4,.07-.15,0-.28-.04-.38-.13-.1-.09-.16-.2-.17-.34,.03-.26,.21-.45,.52-.58Z"/><path class="n" d="M98.89,36.59c0-.2,.06-.35,.17-.46,.11-.11,.25-.17,.41-.17s.3,.06,.42,.16c.11,.11,.17,.26,.17,.46v.28l.03,.03c.23-.3,.51-.53,.85-.69,.34-.16,.7-.24,1.09-.24,.44,0,.85,.1,1.24,.3,.38,.2,.69,.51,.92,.91,.23,.41,.35,.91,.35,1.5v3.97c0,.18-.06,.32-.17,.42-.11,.1-.25,.15-.42,.15s-.29-.05-.41-.15c-.11-.1-.17-.24-.17-.42v-3.95c0-.53-.16-.95-.49-1.25-.33-.3-.71-.45-1.16-.45-.29,0-.56,.07-.81,.2-.25,.13-.46,.33-.61,.59-.16,.26-.23,.58-.23,.94v3.92c0,.2-.05,.36-.16,.47-.11,.11-.24,.16-.4,.16s-.3-.06-.42-.18c-.12-.12-.18-.27-.18-.46v-6.06Z"/><path class="n" d="M105.73,39.62c0-.69,.13-1.32,.4-1.88,.27-.56,.64-.99,1.12-1.31s1.02-.47,1.62-.47c.63,0,1.18,.18,1.66,.51s.84,.78,1.09,1.33c.25,.56,.38,1.16,.38,1.8s-.13,1.27-.38,1.82-.62,1-1.09,1.33c-.47,.33-1.03,.49-1.66,.49s-1.19-.17-1.67-.5c-.48-.33-.84-.78-1.1-1.33-.25-.56-.38-1.16-.38-1.81Zm1.18,0c0,.67,.16,1.28,.47,1.82,.31,.54,.8,.81,1.47,.81,.44,0,.8-.12,1.1-.36s.51-.55,.66-.95c.14-.4,.22-.84,.23-1.32,0-.48-.07-.92-.22-1.32-.15-.4-.37-.72-.66-.96-.29-.24-.65-.36-1.07-.36s-.77,.11-1.07,.34c-.3,.23-.52,.54-.67,.94-.15,.4-.23,.85-.23,1.35Z"/><path class="n" d="M113.21,36.54c0-.16,.06-.29,.17-.4,.12-.1,.26-.15,.43-.15s.3,.05,.41,.15c.1,.1,.16,.25,.16,.45v.22h.03c.45-.57,1.06-.85,1.83-.85,.82,.02,1.46,.42,1.91,1.2,.32-.45,.67-.76,1.03-.94,.36-.18,.77-.27,1.22-.27,.44,.01,.84,.12,1.22,.33s.66,.51,.88,.9c.22,.39,.33,.84,.33,1.36v4.13c0,.18-.06,.32-.18,.42-.12,.1-.26,.16-.43,.16-.15,0-.28-.05-.4-.16-.12-.11-.18-.25-.18-.42v-4.06c0-.35-.07-.65-.2-.9s-.31-.44-.53-.56c-.23-.12-.48-.19-.76-.19-.45,0-.82,.13-1.12,.39-.3,.26-.45,.68-.45,1.25v4.06c0,.17-.06,.31-.18,.4-.12,.1-.26,.15-.42,.15-.15,0-.29-.05-.4-.15-.12-.1-.17-.23-.17-.4v-4c0-.58-.14-1.01-.43-1.28-.29-.28-.65-.42-1.08-.42-.29,.01-.54,.07-.77,.18s-.41,.28-.55,.51c-.14,.23-.21,.53-.21,.88v4.14c0,.18-.06,.32-.17,.42-.12,.1-.25,.16-.41,.16s-.29-.05-.4-.16c-.12-.11-.17-.25-.17-.42v-6.14Z"/><path class="n" d="M129.12,36.92v-.39c0-.17,.05-.31,.16-.42,.11-.11,.24-.16,.39-.16s.29,.05,.39,.16c.11,.11,.16,.26,.16,.44v6.09c0,.2-.05,.35-.16,.45-.1,.1-.24,.15-.39,.15-.15,0-.28-.05-.39-.15-.11-.1-.16-.23-.16-.4v-.52h-.03c-.5,.69-1.12,1.05-1.86,1.07-.6,0-1.14-.15-1.64-.45s-.88-.72-1.16-1.27-.42-1.18-.42-1.9c0-.8,.15-1.48,.46-2.04,.31-.56,.7-.97,1.17-1.24,.47-.27,.95-.41,1.43-.41,.43,0,.8,.08,1.1,.22s.61,.4,.91,.74h.03Zm-3.92,2.69c0,.46,.07,.89,.21,1.29,.14,.4,.35,.72,.64,.97,.28,.25,.63,.37,1.04,.37,.72,0,1.23-.26,1.54-.77,.31-.51,.47-1.13,.47-1.86,0-.53-.08-1-.24-1.4-.16-.4-.39-.71-.68-.92-.29-.21-.63-.32-1-.32h-.03c-.64,.02-1.12,.28-1.44,.76-.32,.48-.49,1.11-.5,1.88Z"/><path class="n" d="M135.01,34.27c0-.23,.06-.39,.19-.49,.12-.09,.25-.14,.39-.14h2.29c.45,0,.89,.11,1.33,.32,.44,.21,.8,.53,1.09,.96,.29,.43,.43,.95,.43,1.57-.03,.46-.13,.85-.28,1.17s-.36,.57-.63,.76-.57,.33-.93,.41c-.36,.08-.78,.12-1.26,.12l3.05,3.35c.16,.15,.24,.32,.24,.52,0,.12-.05,.22-.16,.3-.11,.08-.24,.12-.39,.12-.23,0-.41-.08-.55-.24l-3.64-4.01v3.7c0,.19-.06,.33-.17,.43-.11,.1-.25,.15-.42,.15s-.29-.05-.41-.16-.17-.25-.17-.45v-8.39Zm1.16,.39v3.4h1.66c.45,0,.8-.08,1.05-.23s.42-.35,.51-.6c.09-.25,.14-.55,.15-.9,0-.34-.08-.63-.24-.89-.16-.25-.37-.45-.64-.58s-.57-.2-.89-.2h-1.61Z"/><path class="n" d="M141.51,39.55c.03-.61,.17-1.19,.42-1.73,.25-.55,.61-.99,1.08-1.33,.47-.34,1.02-.51,1.65-.52,.61,0,1.16,.17,1.64,.5,.48,.33,.84,.77,1.1,1.32,.26,.55,.39,1.12,.39,1.72,0,.38-.22,.57-.65,.57h-4.44c0,.47,.11,.87,.3,1.2,.19,.33,.45,.57,.78,.73,.33,.16,.69,.24,1.08,.24,.7,0,1.33-.25,1.91-.74,.2-.14,.35-.22,.44-.22,.13,0,.23,.05,.31,.15,.07,.1,.11,.21,.11,.35,0,.15-.06,.29-.17,.43-.26,.28-.63,.52-1.11,.73s-1,.31-1.55,.31-1.08-.11-1.51-.33-.77-.51-1.03-.87c-.26-.36-.45-.75-.57-1.17-.12-.42-.18-.84-.19-1.27,.01-.02,.02-.04,.02-.05v-.02Zm1.18-.37h3.92c-.01-.65-.19-1.18-.52-1.58-.34-.4-.79-.6-1.38-.62-.59,0-1.07,.19-1.44,.58-.36,.39-.56,.92-.58,1.62Z"/><path class="n" d="M153.57,42.24h-.03c-.17,.31-.42,.56-.75,.74-.33,.18-.71,.28-1.15,.28-.59,0-1.11-.18-1.57-.5-.46-.33-.82-.77-1.08-1.34-.26-.56-.38-1.18-.38-1.85,.01-.7,.15-1.32,.41-1.87,.26-.55,.63-.97,1.1-1.28,.47-.3,1.02-.46,1.65-.46,.88,.02,1.47,.35,1.78,.99h.03v-.38c0-.18,.06-.32,.17-.42s.25-.15,.41-.15c.17,0,.32,.05,.43,.15,.11,.1,.17,.25,.17,.45v6.09c0,.64-.12,1.22-.37,1.74s-.61,.92-1.08,1.21c-.48,.29-1.04,.44-1.7,.45-.77,0-1.51-.21-2.22-.63-.35-.23-.55-.47-.57-.73,.05-.28,.21-.44,.47-.5,.26,.03,.52,.14,.79,.32,.2,.14,.45,.27,.73,.37,.29,.1,.57,.15,.86,.15,.65,0,1.14-.25,1.46-.76s.48-1.1,.48-1.8c0-.03,0-.07,0-.13s0-.1,0-.14Zm-3.79-2.63c.01,.5,.09,.94,.23,1.33s.36,.7,.64,.93c.28,.23,.62,.35,1.02,.37,.6,0,1.09-.23,1.47-.69,.38-.46,.57-1.08,.57-1.86,0-.45-.07-.89-.22-1.3-.14-.41-.37-.75-.68-1.02-.31-.27-.7-.4-1.16-.4-.41,.02-.76,.15-1.04,.4s-.49,.58-.62,.98c-.13,.4-.2,.82-.2,1.26Z"/><path class="n" d="M156.96,35.03c-.2,0-.37-.07-.52-.22s-.22-.32-.22-.51,.07-.36,.22-.51c.14-.15,.32-.22,.52-.22s.37,.07,.51,.22c.14,.15,.21,.32,.21,.52s-.07,.37-.22,.52-.31,.22-.51,.22Zm-.58,1.57c0-.2,.06-.35,.17-.46,.11-.11,.25-.17,.41-.17s.3,.05,.42,.16,.17,.26,.17,.44v6.09c0,.19-.06,.34-.17,.44-.12,.11-.25,.16-.41,.16s-.29-.05-.4-.16c-.11-.11-.17-.26-.17-.44v-6.06Z"/><path class="n" d="M158.78,39.62c0-.69,.13-1.32,.4-1.88,.27-.56,.64-.99,1.12-1.31s1.02-.47,1.62-.47c.63,0,1.18,.18,1.66,.51s.84,.78,1.09,1.33c.25,.56,.38,1.16,.38,1.8s-.13,1.27-.38,1.82-.62,1-1.09,1.33c-.47,.33-1.03,.49-1.66,.49s-1.19-.17-1.67-.5c-.48-.33-.84-.78-1.1-1.33-.25-.56-.38-1.16-.38-1.81Zm1.18,0c0,.67,.16,1.28,.47,1.82,.31,.54,.8,.81,1.47,.81,.44,0,.8-.12,1.1-.36s.51-.55,.66-.95c.14-.4,.22-.84,.23-1.32,0-.48-.07-.92-.22-1.32-.15-.4-.37-.72-.66-.96-.29-.24-.65-.36-1.07-.36s-.77,.11-1.07,.34c-.3,.23-.52,.54-.67,.94-.15,.4-.23,.85-.23,1.35Z"/><path class="n" d="M166.26,36.59c0-.2,.06-.35,.17-.46,.11-.11,.25-.17,.41-.17s.3,.06,.42,.16c.11,.11,.17,.26,.17,.46v.28l.03,.03c.23-.3,.51-.53,.85-.69,.34-.16,.7-.24,1.09-.24,.44,0,.85,.1,1.24,.3,.38,.2,.69,.51,.92,.91,.23,.41,.35,.91,.35,1.5v3.97c0,.18-.06,.32-.17,.42-.11,.1-.25,.15-.42,.15s-.29-.05-.41-.15c-.11-.1-.17-.24-.17-.42v-3.95c0-.53-.16-.95-.49-1.25-.33-.3-.71-.45-1.16-.45-.29,0-.56,.07-.81,.2-.25,.13-.46,.33-.61,.59-.16,.26-.23,.58-.23,.94v3.92c0,.2-.05,.36-.16,.47-.11,.11-.24,.16-.4,.16s-.3-.06-.42-.18c-.12-.12-.18-.27-.18-.46v-6.06Z"/><path class="n" d="M178.19,36.92v-.39c0-.17,.05-.31,.16-.42,.11-.11,.24-.16,.39-.16s.29,.05,.39,.16c.11,.11,.16,.26,.16,.44v6.09c0,.2-.05,.35-.16,.45-.1,.1-.24,.15-.39,.15-.15,0-.28-.05-.39-.15-.11-.1-.16-.23-.16-.4v-.52h-.03c-.5,.69-1.12,1.05-1.86,1.07-.6,0-1.14-.15-1.64-.45s-.88-.72-1.16-1.27-.42-1.18-.42-1.9c0-.8,.15-1.48,.46-2.04,.31-.56,.7-.97,1.17-1.24,.47-.27,.95-.41,1.43-.41,.43,0,.8,.08,1.1,.22s.61,.4,.91,.74h.03Zm-3.92,2.69c0,.46,.07,.89,.21,1.29,.14,.4,.35,.72,.64,.97,.28,.25,.63,.37,1.04,.37,.72,0,1.23-.26,1.54-.77,.31-.51,.47-1.13,.47-1.86,0-.53-.08-1-.24-1.4-.16-.4-.39-.71-.68-.92-.29-.21-.63-.32-1-.32h-.03c-.64,.02-1.12,.28-1.44,.76-.32,.48-.49,1.11-.5,1.88Z"/><path class="n" d="M180.87,33.47c0-.2,.06-.35,.17-.45s.25-.16,.41-.16,.3,.05,.42,.15c.11,.1,.17,.25,.17,.43v9.18c0,.2-.06,.36-.17,.47-.12,.11-.25,.16-.41,.16s-.29-.06-.4-.17-.17-.27-.17-.46v-9.16Z"/><path class="n" d="M77.82,51.6v-3.5c0-.18,.06-.33,.17-.43,.11-.1,.25-.16,.4-.16,.17,0,.32,.05,.43,.16,.11,.1,.17,.26,.17,.46v9.21c0,.19-.06,.34-.18,.44-.12,.11-.26,.16-.42,.16-.15,0-.28-.05-.4-.16s-.18-.25-.18-.42v-.38h-.03c-.13,.26-.33,.48-.62,.66-.29,.18-.67,.28-1.16,.3-.63,0-1.18-.15-1.65-.46-.47-.31-.84-.74-1.1-1.28-.26-.55-.4-1.17-.41-1.87,0-.5,.07-.97,.22-1.42,.15-.45,.35-.84,.62-1.18,.27-.34,.58-.6,.96-.79,.37-.19,.78-.29,1.22-.29,.8,0,1.44,.32,1.93,.96h.03Zm-3.79,2.67c0,.72,.16,1.34,.47,1.85,.31,.51,.78,.78,1.39,.8,.49,0,.89-.13,1.2-.38,.31-.26,.52-.58,.65-.98s.2-.82,.21-1.27c0-.52-.08-.98-.25-1.38-.17-.4-.4-.71-.7-.93-.3-.22-.63-.33-1.01-.33-.44,0-.81,.13-1.1,.39-.29,.26-.51,.59-.64,.98-.14,.39-.21,.81-.22,1.24Z"/><path class="n" d="M80.17,54.23c.03-.61,.17-1.19,.42-1.73,.25-.55,.61-.99,1.08-1.33,.47-.34,1.02-.51,1.65-.52,.61,0,1.16,.17,1.64,.5,.48,.33,.84,.77,1.1,1.32,.26,.55,.39,1.12,.39,1.72,0,.38-.22,.57-.65,.57h-4.44c0,.47,.11,.87,.3,1.2,.19,.33,.45,.57,.78,.73,.33,.16,.69,.24,1.08,.24,.7,0,1.33-.25,1.91-.74,.2-.14,.35-.22,.44-.22,.13,0,.23,.05,.31,.15,.07,.1,.11,.21,.11,.35,0,.15-.06,.29-.17,.43-.26,.28-.63,.52-1.11,.73s-1,.31-1.55,.31-1.08-.11-1.51-.33-.77-.51-1.03-.87c-.26-.36-.45-.75-.57-1.17-.12-.42-.18-.84-.19-1.27,.01-.02,.02-.04,.02-.05v-.02Zm1.18-.37h3.92c-.01-.65-.19-1.18-.52-1.58-.34-.4-.79-.6-1.38-.62-.59,0-1.07,.19-1.44,.58-.36,.39-.56,.92-.58,1.62Z"/><path class="n" d="M97.28,49.25c.11,.13,.16,.29,.16,.46,0,.13-.05,.24-.14,.33s-.21,.15-.35,.16c-.14-.03-.24-.07-.29-.11-.18-.13-.36-.26-.53-.39s-.37-.23-.59-.32c-.22-.08-.49-.13-.8-.14-.69,0-1.26,.19-1.72,.58-.46,.39-.79,.87-.99,1.44-.21,.58-.32,1.15-.33,1.72,0,.53,.08,1.09,.25,1.68,.17,.59,.46,1.11,.89,1.55s.99,.67,1.71,.69c.47,0,.86-.06,1.16-.18,.3-.12,.67-.31,1.09-.55,.12-.07,.25-.11,.39-.11s.25,.05,.33,.15,.12,.22,.12,.37c0,.2-.06,.35-.18,.44-.34,.32-.78,.55-1.3,.69-.52,.14-1.03,.21-1.53,.21-.73,0-1.37-.16-1.91-.46s-.97-.68-1.31-1.16c-.34-.48-.58-.98-.74-1.53-.16-.54-.24-1.07-.24-1.57,0-.67,.09-1.3,.27-1.9,.18-.6,.44-1.13,.8-1.59s.8-.82,1.33-1.09c.53-.27,1.14-.4,1.82-.41,.32,0,.65,.04,.99,.11,.34,.08,.65,.19,.94,.34s.53,.34,.71,.56Z"/><path class="n" d="M98.75,51.24c0-.19,.06-.33,.17-.44s.25-.16,.41-.16,.3,.05,.42,.16,.17,.26,.17,.44v3.9c0,.54,.14,.98,.41,1.3,.27,.32,.68,.48,1.22,.48,1.12,0,1.67-.59,1.67-1.78v-3.9c0-.19,.06-.33,.17-.44s.25-.16,.41-.16,.3,.05,.42,.16,.17,.26,.17,.44v3.92c0,.49-.1,.95-.29,1.37-.2,.42-.51,.76-.94,1.02-.43,.26-.97,.39-1.63,.39-.62,0-1.14-.13-1.55-.38-.41-.25-.72-.59-.92-1.01-.2-.42-.3-.88-.3-1.39v-3.92Z"/><path class="n" d="M105.91,51.27c0-.2,.06-.35,.17-.46,.11-.11,.25-.17,.41-.17s.3,.06,.42,.16c.11,.11,.17,.26,.17,.46v.28l.03,.03c.23-.3,.51-.53,.85-.69,.34-.16,.7-.24,1.09-.24,.44,0,.85,.1,1.24,.3,.38,.2,.69,.51,.92,.91,.23,.41,.35,.91,.35,1.5v3.97c0,.18-.06,.32-.17,.42-.11,.1-.25,.15-.42,.15s-.29-.05-.41-.15c-.11-.1-.17-.24-.17-.42v-3.95c0-.53-.16-.95-.49-1.25-.33-.3-.71-.45-1.16-.45-.29,0-.56,.07-.81,.2-.25,.13-.46,.33-.61,.59-.16,.26-.23,.58-.23,.94v3.92c0,.2-.05,.36-.16,.47-.11,.11-.24,.16-.4,.16s-.3-.06-.42-.18c-.12-.12-.18-.27-.18-.46v-6.06Z"/><path class="n" d="M117.72,51.6v-3.5c0-.18,.06-.33,.17-.43,.11-.1,.25-.16,.4-.16,.17,0,.32,.05,.43,.16,.11,.1,.17,.26,.17,.46v9.21c0,.19-.06,.34-.18,.44-.12,.11-.26,.16-.42,.16-.15,0-.28-.05-.4-.16s-.18-.25-.18-.42v-.38h-.03c-.13,.26-.33,.48-.62,.66-.29,.18-.67,.28-1.16,.3-.63,0-1.18-.15-1.65-.46-.47-.31-.84-.74-1.1-1.28-.26-.55-.4-1.17-.41-1.87,0-.5,.07-.97,.22-1.42,.15-.45,.35-.84,.62-1.18,.27-.34,.58-.6,.96-.79,.37-.19,.78-.29,1.22-.29,.8,0,1.44,.32,1.93,.96h.03Zm-3.79,2.67c0,.72,.16,1.34,.47,1.85,.31,.51,.78,.78,1.39,.8,.49,0,.89-.13,1.2-.38,.31-.26,.52-.58,.65-.98s.2-.82,.21-1.27c0-.52-.08-.98-.25-1.38-.17-.4-.4-.71-.7-.93-.3-.22-.63-.33-1.01-.33-.44,0-.81,.13-1.1,.39-.29,.26-.51,.59-.64,.98-.14,.39-.21,.81-.22,1.24Z"/><path class="n" d="M121.1,49.71c-.2,0-.37-.07-.52-.22s-.22-.32-.22-.51,.07-.36,.22-.51c.14-.15,.32-.22,.52-.22s.37,.07,.51,.22c.14,.15,.21,.32,.21,.52s-.07,.37-.22,.52-.31,.22-.51,.22Zm-.58,1.57c0-.2,.06-.35,.17-.46,.11-.11,.25-.17,.41-.17s.3,.05,.42,.16,.17,.26,.17,.44v6.09c0,.19-.06,.34-.17,.44-.12,.11-.25,.16-.41,.16s-.29-.05-.4-.16c-.11-.11-.17-.26-.17-.44v-6.06Z"/><path class="n" d="M123.24,51.27c0-.2,.06-.35,.17-.46,.11-.11,.25-.17,.41-.17s.3,.06,.42,.16c.11,.11,.17,.26,.17,.46v.28l.03,.03c.23-.3,.51-.53,.85-.69,.34-.16,.7-.24,1.09-.24,.44,0,.85,.1,1.24,.3,.38,.2,.69,.51,.92,.91,.23,.41,.35,.91,.35,1.5v3.97c0,.18-.06,.32-.17,.42-.11,.1-.25,.15-.42,.15s-.29-.05-.41-.15c-.11-.1-.17-.24-.17-.42v-3.95c0-.53-.16-.95-.49-1.25-.33-.3-.71-.45-1.16-.45-.29,0-.56,.07-.81,.2-.25,.13-.46,.33-.61,.59-.16,.26-.23,.58-.23,.94v3.92c0,.2-.05,.36-.16,.47-.11,.11-.24,.16-.4,.16s-.3-.06-.42-.18c-.12-.12-.18-.27-.18-.46v-6.06Z"/><path class="n" d="M135.18,51.6v-.39c0-.17,.05-.31,.16-.42,.11-.11,.24-.16,.39-.16s.29,.05,.39,.16c.11,.11,.16,.26,.16,.44v6.09c0,.2-.05,.35-.16,.45-.1,.1-.24,.15-.39,.15-.15,0-.28-.05-.39-.15-.11-.1-.16-.23-.16-.4v-.52h-.03c-.5,.69-1.12,1.05-1.86,1.07-.6,0-1.14-.15-1.64-.45s-.88-.72-1.16-1.27-.42-1.18-.42-1.9c0-.8,.15-1.48,.46-2.04,.31-.56,.7-.97,1.17-1.24,.47-.27,.95-.41,1.43-.41,.43,0,.8,.08,1.1,.22s.61,.4,.91,.74h.03Zm-3.92,2.69c0,.46,.07,.89,.21,1.29,.14,.4,.35,.72,.64,.97,.28,.25,.63,.37,1.04,.37,.72,0,1.23-.26,1.54-.77,.31-.51,.47-1.13,.47-1.86,0-.53-.08-1-.24-1.4-.16-.4-.39-.71-.68-.92-.29-.21-.63-.32-1-.32h-.03c-.64,.02-1.12,.28-1.44,.76-.32,.48-.49,1.11-.5,1.88Z"/><path class="n" d="M137.85,51.22c0-.16,.06-.29,.17-.4,.12-.1,.26-.15,.43-.15s.3,.05,.41,.15c.1,.1,.16,.25,.16,.45v.22h.03c.45-.57,1.06-.85,1.83-.85,.82,.02,1.46,.42,1.91,1.2,.32-.45,.67-.76,1.03-.94,.36-.18,.77-.27,1.22-.27,.44,.01,.84,.12,1.22,.33s.66,.51,.88,.9c.22,.39,.33,.84,.33,1.36v4.13c0,.18-.06,.32-.18,.42-.12,.1-.26,.16-.43,.16-.15,0-.28-.05-.4-.16-.12-.11-.18-.25-.18-.42v-4.06c0-.35-.07-.65-.2-.9s-.31-.44-.53-.56c-.23-.12-.48-.19-.76-.19-.45,0-.82,.13-1.12,.39-.3,.26-.45,.68-.45,1.25v4.06c0,.17-.06,.31-.18,.4-.12,.1-.26,.15-.42,.15-.15,0-.29-.05-.4-.15-.12-.1-.17-.23-.17-.4v-4c0-.58-.14-1.01-.43-1.28-.29-.28-.65-.42-1.08-.42-.29,.01-.54,.07-.77,.18s-.41,.28-.55,.51c-.14,.23-.21,.53-.21,.88v4.14c0,.18-.06,.32-.17,.42-.12,.1-.25,.16-.41,.16s-.29-.05-.4-.16c-.12-.11-.17-.25-.17-.42v-6.14Z"/><path class="n" d="M153.77,51.6v-.39c0-.17,.05-.31,.16-.42,.11-.11,.24-.16,.39-.16s.29,.05,.39,.16c.11,.11,.16,.26,.16,.44v6.09c0,.2-.05,.35-.16,.45-.1,.1-.24,.15-.39,.15-.15,0-.28-.05-.39-.15-.11-.1-.16-.23-.16-.4v-.52h-.03c-.5,.69-1.12,1.05-1.86,1.07-.6,0-1.14-.15-1.64-.45s-.88-.72-1.16-1.27-.42-1.18-.42-1.9c0-.8,.15-1.48,.46-2.04,.31-.56,.7-.97,1.17-1.24,.47-.27,.95-.41,1.43-.41,.43,0,.8,.08,1.1,.22s.61,.4,.91,.74h.03Zm-3.92,2.69c0,.46,.07,.89,.21,1.29,.14,.4,.35,.72,.64,.97,.28,.25,.63,.37,1.04,.37,.72,0,1.23-.26,1.54-.77,.31-.51,.47-1.13,.47-1.86,0-.53-.08-1-.24-1.4-.16-.4-.39-.71-.68-.92-.29-.21-.63-.32-1-.32h-.03c-.64,.02-1.12,.28-1.44,.76-.32,.48-.49,1.11-.5,1.88Z"/><path class="n" d="M156.44,51.27c0-.19,.06-.33,.17-.44s.25-.16,.41-.16,.3,.05,.42,.16c.11,.11,.17,.26,.17,.44v.6h.03c.17-.31,.4-.59,.69-.84,.28-.25,.58-.38,.89-.39,.17,0,.33,.06,.46,.17,.13,.12,.2,.26,.2,.43,0,.2-.07,.35-.21,.44-.14,.09-.34,.18-.6,.24s-.43,.12-.51,.17c-.63,.35-.95,.94-.95,1.78v3.45c0,.19-.05,.34-.16,.45-.11,.11-.24,.16-.4,.16-.17,0-.31-.06-.43-.17s-.17-.27-.17-.46v-6.04Z"/><path class="n" d="M165.4,51.29c.03,.11,.05,.19,.05,.25,0,.13-.05,.25-.14,.34-.1,.09-.22,.14-.38,.16-.04-.01-.18-.06-.4-.13s-.41-.13-.55-.17c-.14-.04-.29-.06-.44-.06-.43,0-.79,.12-1.09,.36-.3,.24-.53,.56-.68,.94-.16,.38-.24,.79-.26,1.21,0,.64,.14,1.24,.41,1.79s.75,.86,1.42,.93c.09,0,.16,0,.2,.03,.1,0,.21-.02,.32-.04,.11-.02,.2-.05,.27-.07,.07-.03,.16-.06,.27-.11,.11-.05,.2-.09,.26-.11,.11-.05,.21-.08,.3-.08,.13,0,.23,.05,.32,.14,.08,.09,.13,.21,.13,.36,0,.35-.2,.59-.61,.72-.41,.14-.82,.2-1.25,.2-.64,0-1.21-.16-1.69-.47-.48-.31-.85-.73-1.11-1.27-.26-.53-.39-1.11-.41-1.74,0-.5,.06-.98,.18-1.43s.31-.85,.57-1.21c.25-.35,.59-.63,.99-.84,.41-.21,.88-.32,1.41-.33,.48,0,.9,.07,1.24,.2s.57,.28,.67,.46Z"/><path class="n" d="M171.35,51.6v-.39c0-.17,.05-.31,.16-.42,.11-.11,.24-.16,.39-.16s.29,.05,.39,.16c.11,.11,.16,.26,.16,.44v6.09c0,.2-.05,.35-.16,.45-.1,.1-.24,.15-.39,.15-.15,0-.28-.05-.39-.15-.11-.1-.16-.23-.16-.4v-.52h-.03c-.5,.69-1.12,1.05-1.86,1.07-.6,0-1.14-.15-1.64-.45s-.88-.72-1.16-1.27-.42-1.18-.42-1.9c0-.8,.15-1.48,.46-2.04,.31-.56,.7-.97,1.17-1.24,.47-.27,.95-.41,1.43-.41,.43,0,.8,.08,1.1,.22s.61,.4,.91,.74h.03Zm-3.92,2.69c0,.46,.07,.89,.21,1.29,.14,.4,.35,.72,.64,.97,.28,.25,.63,.37,1.04,.37,.72,0,1.23-.26,1.54-.77,.31-.51,.47-1.13,.47-1.86,0-.53-.08-1-.24-1.4-.16-.4-.39-.71-.68-.92-.29-.21-.63-.32-1-.32h-.03c-.64,.02-1.12,.28-1.44,.76-.32,.48-.49,1.11-.5,1.88Z"/></g><g><path class="n" d="M65.26,1.56c-.17-.8-.83-1.41-1.64-1.53-.81-.12-1.62,.27-2.02,.99-.03,.06-3.16,5.44-13.71,11.36-.27-1.92-1.92-3.41-3.92-3.41-1.84,0-3.39,1.27-3.83,2.97-3.18,2.77-5.56,6.15-7.11,10.09-1.55-3.94-3.93-7.32-7.11-10.09-.44-1.71-1.99-2.97-3.83-2.97-2,0-3.65,1.49-3.92,3.41C7.61,6.45,4.49,1.07,4.46,1.03,4.07,.3,3.26-.1,2.44,.02,1.63,.14,.97,.75,.79,1.56c-.06,.27-1.4,6.65-.46,13.78,1.27,9.59,6.05,15.95,13.86,18.45-1.18,.32-2.43,.86-3.7,2.07-4.06,3.87-2.5,8.91-1.35,12.59,.48,1.55-.08,3.94-.49,5.69-.17,.71-.32,1.39-.41,1.98-.1,.67,.15,1.34,.65,1.78,.25,.22,.55,.36,.87,.43-.01,.18-.02,.37-.02,.56v.06c0,1.34,.26,2.61,.78,3.79,.51,1.16,1.22,2.19,2.11,3.05,.88,.85,1.92,1.53,3.09,2.02,1.18,.49,2.46,.74,3.79,.74,1.25,0,2.46-.22,3.6-.66,.55-.21,1.06-.47,1.54-.77,.07,.08,.13,.15,.21,.22,.32,.31,.7,.56,1.11,.74,.45,.19,.93,.29,1.42,.29,1.02,0,1.92-.39,2.59-1.12,.62-.68,.95-1.55,.95-2.51v-2.53c.6,.37,1.31,.59,2.06,.59s1.46-.22,2.06-.58v2.53c0,.96,.33,1.83,.97,2.51,.67,.72,1.55,1.1,2.56,1.1,.72,0,1.38-.19,1.96-.56,.16,.1,.33,.19,.5,.27,.88,.38,1.91,.38,2.8,0,.43-.18,.82-.44,1.15-.77,.32-.32,.58-.7,.76-1.12,.19-.44,.29-.91,.29-1.4v-.62c.43,.18,.89,.27,1.38,.27h.39c.12,0,.24,.02,.35,.06,.1,.04,.18,.08,.25,.15,.05,.04,.09,.11,.13,.19,.03,.06,.04,.13,.05,.23,0,.04,0,.08,0,.12,.15,1.8,1.66,3.2,3.48,3.2,1.93,0,3.49-1.57,3.49-3.49,0-.12,0-.24-.02-.37-.04-.45-.13-.89-.25-1.32-.19-.67-.47-1.3-.83-1.88-.29-.46-.62-.89-1.01-1.27,.11-.19,.21-.4,.31-.6,.26-.57,.43-1.17,.54-1.8,.37,.46,.93,.75,1.54,.75,.12,0,.24-.01,.35-.03,1.05-.19,1.76-1.18,1.6-2.24-.09-.59-.25-1.27-.41-1.98-.41-1.75-.97-4.14-.49-5.69,1.14-3.68,2.71-8.72-1.35-12.59-1.27-1.21-2.52-1.75-3.7-2.07,7.81-2.5,12.59-8.86,13.86-18.45,.94-7.14-.4-13.51-.46-13.78Z"/><g><path class="s" d="M19.21,15.19C6.25,8.43,2.73,1.98,2.73,1.98c0,0-5.36,24.91,12.63,30.11,13.99,4.04,16.48,13.22,16.48,13.22,0,0,3.97-21.44-12.63-30.11Zm-2.92,13.62c-3.33-.96-5.82-2.74-7.63-5.44-1.51-2.25-2.51-5.14-2.98-8.58-.23-1.65-.31-3.27-.31-4.76,2.75,2.42,6.69,5.28,12.25,8.18,5.84,3.05,9.44,8.31,10.72,15.66,.07,.43,.14,.85,.19,1.27-2.81-2.39-6.75-4.73-12.25-6.32Z"/><path class="s" d="M63.33,1.98s-3.53,6.46-16.48,13.22c-16.6,8.67-12.63,30.11-12.63,30.11,0,0,2.49-9.18,16.48-13.22C68.69,26.89,63.33,1.98,63.33,1.98Zm-2.96,12.82c-.47,3.44-1.48,6.33-2.98,8.58-1.81,2.7-4.3,4.48-7.63,5.44-5.5,1.59-9.45,3.93-12.25,6.32,.06-.42,.12-.84,.19-1.27,1.28-7.34,4.89-12.61,10.72-15.66,5.56-2.9,9.5-5.76,12.25-8.18,0,1.49-.08,3.11-.31,4.76Z"/><circle class="s" cx="33" cy="58.85" r="1.98"/><g><path class="ac" d="M15.34,57.24c.22-.52,.51-.99,.89-1.41,.38-.41,.82-.75,1.33-1,.51-.25,1.06-.39,1.66-.41,.55-.01,1.08,.06,1.58,.21,.51,.15,1,.43,1.49,.82,.16,.13,.34,.26,.53,.38,.19,.12,.39,.21,.6,.27,.21,.05,.44,.05,.68,0,.24-.05,.49-.19,.75-.42,.17-.15,.3-.33,.39-.53,.09-.2,.13-.42,.12-.64,0-.22-.06-.44-.15-.66-.1-.22-.24-.43-.44-.62-.66-.68-1.44-1.19-2.36-1.54-.92-.35-1.88-.53-2.89-.53-1.08,0-2.09,.2-3.03,.61-.94,.4-1.77,.96-2.47,1.66-.71,.7-1.26,1.52-1.67,2.46-.41,.94-.61,1.94-.61,3.02l.02,.02-.02,.03v.02c0,1.07,.2,2.07,.61,3,.41,.93,.97,1.74,1.67,2.42,.71,.68,1.53,1.22,2.47,1.62,.94,.39,1.95,.59,3.03,.59,1.01,0,1.98-.18,2.89-.52,.92-.35,1.7-.86,2.36-1.54,.19-.19,.34-.4,.44-.62,.1-.22,.15-.44,.15-.65,0-.22-.04-.43-.12-.63-.09-.2-.22-.38-.39-.53-.26-.23-.51-.37-.75-.42-.24-.05-.47-.06-.68,0-.21,.05-.41,.13-.6,.26-.19,.12-.36,.25-.53,.38-.48,.41-.98,.69-1.49,.84-.51,.15-1.03,.22-1.58,.19-.6-.01-1.16-.14-1.67-.4-.51-.25-.96-.59-1.33-1-.38-.41-.67-.88-.88-1.41-.21-.52-.31-1.06-.31-1.61l-.02-.02,.02-.03c0-.56,.11-1.1,.32-1.62Z"/><path class="ac" d="M53.59,64.71h0c-.03-.33-.09-.66-.18-.97-.14-.5-.34-.95-.6-1.37-.26-.42-.58-.79-.94-1.13-.37-.33-.77-.62-1.22-.85,.57-.47,1.02-1.06,1.34-1.76,.32-.71,.48-1.49,.48-2.34,0-.76-.15-1.47-.45-2.12-.3-.65-.71-1.21-1.22-1.69-.51-.48-1.1-.85-1.78-1.12-.68-.27-1.4-.41-2.15-.41-.89,0-1.7,.15-2.44,.45-.74,.3-1.37,.73-1.9,1.27-.53,.54-.94,1.19-1.23,1.94-.29,.75-.44,1.58-.44,2.48v7.69c0,.22,.04,.43,.13,.62,.08,.19,.2,.36,.34,.51,.15,.15,.32,.26,.51,.35,.19,.08,.4,.13,.62,.13s.43-.04,.63-.13c.2-.08,.37-.2,.52-.35,.15-.15,.26-.32,.34-.51,.08-.19,.13-.4,.13-.62v-7.74c.01-.56,.09-1.04,.25-1.43,.16-.39,.37-.71,.63-.96,.26-.25,.56-.42,.89-.53,.33-.11,.67-.16,1.03-.16,.38,0,.72,.06,1.04,.19,.32,.13,.6,.3,.84,.52,.24,.22,.43,.48,.56,.77,.14,.29,.2,.61,.2,.94,0,.31-.04,.63-.13,.94-.09,.31-.22,.6-.39,.85-.17,.25-.38,.45-.63,.61s-.54,.24-.86,.25h-.06c-.24,0-.46,.04-.67,.13-.2,.09-.38,.21-.54,.37-.16,.16-.28,.34-.37,.55-.09,.21-.13,.43-.13,.67s.04,.46,.13,.67c.09,.2,.21,.38,.37,.54,.16,.16,.34,.28,.54,.37,.2,.09,.43,.13,.67,.13h.39c.36,0,.7,.06,1.03,.18,.33,.12,.62,.29,.88,.52,.26,.22,.46,.5,.62,.84,.14,.29,.21,.61,.23,.97h0c.04,.8,.7,1.44,1.51,1.44s1.52-.68,1.52-1.52c0-.06,0-.12-.01-.18Z"/><path class="ac" d="M39.56,55.12c-.4-.82-.92-1.54-1.57-2.16-.65-.61-1.4-1.1-2.25-1.45-.86-.36-1.77-.53-2.74-.53s-1.9,.18-2.76,.54c-.86,.36-1.62,.86-2.27,1.49-.65,.63-1.17,1.37-1.57,2.21-.39,.85-.61,1.75-.64,2.71,0,.02,0,.05,0,.07,0,.03,0,.05,0,.07v6.69c0,.23,.04,.44,.13,.65,.09,.2,.2,.38,.36,.52,.15,.15,.33,.26,.53,.35,.2,.09,.41,.13,.64,.13,.46,0,.84-.16,1.13-.48,.29-.32,.44-.71,.44-1.17v-6.59c.01-.55,.12-1.07,.33-1.55,.21-.48,.5-.91,.86-1.27,.37-.36,.79-.65,1.28-.86,.48-.21,1.01-.31,1.57-.31s1.07,.1,1.56,.31c.49,.21,.92,.49,1.28,.85,.37,.36,.66,.77,.87,1.25,.22,.48,.32,.99,.32,1.54v6.62c0,.46,.15,.85,.44,1.16,.29,.31,.66,.47,1.11,.47s.86-.16,1.18-.47c.32-.31,.48-.7,.48-1.16v-6.77c0-.1,0-.17-.02-.21-.05-.95-.28-1.83-.68-2.66Z"/></g><g><path class="ag" d="M44.21,40.64c-1.77,.75-2.89,2.12-2.49,3.06,.4,.93,2.16,1.08,3.93,.33,1.77-.75,2.89-2.12,2.49-3.06-.4-.93-2.16-1.08-3.93-.33Z"/><path class="ag" d="M55.03,47.87c1.19-3.82,2.25-7.64-.83-10.57-2.66-2.53-5.09-1.25-8.45-3.38-9.61,4.45-11.51,11.33-11.53,11.39,.42,1.33,.97,2.51,1.82,3.22,4.13,3.45,7.39-1.34,13.87,1.09,1.38,.52,2.54,1.42,3.42,2.31,1.99,2.03,2.52,4.5,2.52,4.5-.3-2.02-1.69-5.79-.83-8.55Zm-8.66-2.15c-3.55,1.51-7.06,1.22-7.86-.65-.79-1.87,1.44-4.6,4.98-6.11,3.55-1.51,7.06-1.22,7.86,.65,.79,1.87-1.44,4.6-4.98,6.11Z"/><path class="ag" d="M21.85,40.64c-1.77-.75-3.53-.61-3.93,.33-.4,.93,.72,2.3,2.49,3.06,1.77,.75,3.53,.61,3.93-.33,.4-.93-.72-2.3-2.49-3.06Z"/><path class="ag" d="M20.3,33.92c-3.35,2.13-5.79,.85-8.45,3.38-3.08,2.94-2.02,6.76-.83,10.57,.85,2.75-.53,6.52-.83,8.55,0,0,.53-2.47,2.52-4.5,.88-.9,2.04-1.79,3.42-2.31,6.48-2.43,9.74,2.36,13.87-1.09,.85-.71,1.4-1.88,1.82-3.22-.02-.06-1.92-6.94-11.53-11.39Zm7.25,11.15c-.79,1.87-4.31,2.16-7.86,.65-3.55-1.51-5.78-4.24-4.98-6.11,.79-1.87,4.31-2.16,7.86-.65s5.78,4.24,4.98,6.11Z"/><path class="ag" d="M22.08,14.92c.27,0,.53-.05,.76-.15,4.1,2.58,7.23,6.23,9.26,10.76h0c-1.37-5.05-4.08-9.3-8.04-12.56,0-.01,0-.03,0-.04,0-1.1-.89-1.98-1.98-1.98s-1.98,.89-1.98,1.98,.89,1.98,1.98,1.98Z"/><path class="ag" d="M34.99,27.57c0-1.1-.89-1.98-1.98-1.98s-1.99,.89-1.99,1.98,.89,1.98,1.99,1.98,1.98-.89,1.98-1.98Z"/><path class="ag" d="M43.21,14.76c.24,.1,.49,.15,.76,.15,1.1,0,1.98-.89,1.98-1.98s-.89-1.98-1.98-1.98-1.99,.89-1.99,1.98c0,.01,0,.03,0,.04-3.95,3.26-6.67,7.51-8.04,12.55h0c2.03-4.53,5.16-8.17,9.26-10.76Z"/></g><path class="af" d="M28.35,33.87c-1.28-7.34-4.89-12.61-10.72-15.66-5.56-2.9-9.5-5.76-12.25-8.18,0,1.49,.08,3.11,.31,4.76,.47,3.44,1.48,6.33,2.98,8.58,1.81,2.7,4.3,4.48,7.63,5.44,5.5,1.59,9.45,3.93,12.25,6.32-.06-.42-.12-.84-.19-1.27Zm-11.11-8.32c-2.56-.74-4.38-2.03-5.74-4.06-.74-1.1-1.33-2.42-1.77-3.94,1.96,1.28,4.07,2.51,6.33,3.68,2.84,1.48,5.02,3.56,6.56,6.27-1.69-.75-3.49-1.4-5.38-1.95Z"/><path class="af" d="M48.43,18.21c-5.84,3.05-9.44,8.31-10.72,15.66-.07,.43-.14,.85-.19,1.27,2.81-2.39,6.75-4.73,12.25-6.32,3.33-.96,5.82-2.74,7.63-5.44,1.51-2.25,2.51-5.14,2.98-8.58,.23-1.65,.31-3.27,.31-4.76-2.75,2.42-6.69,5.28-12.25,8.18Zm6.13,3.27c-1.36,2.03-3.18,3.32-5.74,4.06-1.89,.55-3.69,1.2-5.38,1.95,1.54-2.71,3.72-4.78,6.56-6.27,2.25-1.18,4.37-2.41,6.33-3.68-.44,1.52-1.03,2.83-1.77,3.94Z"/></g></g></g><g class="u"><g class="w"><g class="a`"><g class="t"><g class="y"><g class="ad"><g class="q"><rect class="x" x="32.91" y="-77.28" width="66.97" height="63.83" transform="translate(64.08 35.01) rotate(-54.01)"/></g></g><g class="ae"><g class="v"><rect class="r" x="79.71" y="-88.81" width="86.17" height="95.19" transform="translate(83.98 82.36) rotate(-54.01)"/></g></g></g></g></g></g></g></g></g></svg>