<?xml version="1.0" encoding="UTF-8"?><svg id="a" xmlns="http://www.w3.org/2000/svg" viewBox="0 0 77.68 60.48"><defs><style>.b{fill:#005473;}</style></defs><path class="b" d="M4.61,30.29c0,5.99,1.9,11.33,5.63,15.99,3.65,4.56,8.37,7.54,14.05,8.95,2.62,.65,5.29,.78,7.98,.59,4.58-.32,8.75-1.83,12.49-4.43,5.5-3.83,9.02-9.05,10.55-15.58,.49-2.1,.62-4.24,.57-6.4-.03-1.18,.47-1.7,1.66-1.78,.63-.04,1.27-.08,1.89-.02,.82,.08,.93,.62,.99,1.2,.21,2.1,0,4.17-.34,6.24-.55,3.44-1.64,6.71-3.33,9.76-1.66,2.99-3.74,5.65-6.31,7.93-3.46,3.08-7.39,5.31-11.85,6.56-1.84,.52-3.69,.95-5.6,1.04-1.64,.08-3.3,.2-4.93,.07-5.45-.44-10.48-2.14-15-5.29-2.07-1.44-3.96-3.08-5.6-4.99-3.13-3.63-5.34-7.75-6.51-12.42C.31,35.14-.07,32.52,0,29.86c.15-5.9,1.75-11.37,5.06-16.29C9.2,7.4,14.84,3.27,21.97,1.19,24.84,.35,27.79-.08,30.78,.01c6.51,.2,12.42,2.17,17.66,6.09,.83,.62,1.16,1.36,.32,2.31-.33,.37-.6,.81-.83,1.25-.32,.61-1.15,.86-1.79,.44-.96-.64-1.89-1.33-2.88-1.92-2.7-1.61-5.59-2.7-8.71-3.2-2.43-.39-4.86-.45-7.31-.18-4.88,.54-9.22,2.4-13.02,5.46-4.51,3.63-7.49,8.29-8.91,13.92-.5,2-.72,4.04-.71,6.11Z"/><path class="b" d="M70.85,4.43l-2.35,7.54,9.16,1.19c-.84,.5-1.57,.92-2.29,1.34-3.88,2.26-7.76,4.52-11.64,6.76-.23,.13-.53,.21-.79,.21-2.26-.04-4.51-.12-6.77-.16-.29,0-.62,.07-.88,.21-6.03,3.09-12.05,6.2-18.08,9.3-.28,.15-.63,.17-1.05,.28-.32,2.26-1.56,4-3.9,4.84-1.56,.56-3.09,.42-4.55-.35-2.97-1.56-3.97-5.28-2.23-8.13,1.63-2.68,5.62-3.93,8.76-1.32,.2-.14,.37-.3,.57-.4,6.09-2.93,12.18-5.86,18.26-8.8,.22-.11,.44-.3,.58-.51,1.14-1.73,2.26-3.48,3.39-5.22,.11-.16,.26-.34,.43-.42,4.37-2.09,8.75-4.18,13.13-6.26,.05-.02,.11-.04,.25-.1Z"/><path class="b" d="M14.32,30.15c.09,4.89,1.73,8.69,4.99,11.78,2.13,2.03,4.65,3.37,7.53,3.93,4.56,.89,8.77-.02,12.51-2.82,3-2.25,4.98-5.21,5.85-8.86,.28-1.16,.35-2.37,.43-3.56,.07-1.14,.46-1.59,1.62-1.66,.32-.02,.64-.18,.95-.15,.74,.07,1.05,.48,1.1,1.3,.19,2.77-.44,5.4-1.48,7.94-1.12,2.75-2.85,5.09-5.08,7.04-2.56,2.23-5.51,3.7-8.84,4.38-1.87,.38-3.76,.55-5.66,.34-3.74-.41-7.16-1.66-10.13-4.01-3.88-3.06-6.3-7.01-7.17-11.88-1.01-5.73,.34-10.91,3.91-15.46,2.77-3.53,6.41-5.78,10.8-6.79,2.01-.46,4.04-.66,6.09-.44,3.45,.38,6.64,1.49,9.49,3.53,.73,.52,1.06,1.54,.19,2.18-.25,.18-.42,.45-.64,.67-.54,.54-1.07,.61-1.7,.17-1.66-1.14-3.45-2.01-5.41-2.47-1.65-.39-3.32-.5-5.03-.37-2.66,.2-5.09,1.06-7.28,2.54-3.57,2.41-5.84,5.75-6.73,9.96-.21,1.01-.24,2.05-.31,2.69Z"/></svg>