<?xml version="1.0" encoding="UTF-8"?><svg id="a" xmlns="http://www.w3.org/2000/svg" viewBox="0 0 63.35 69.52"><defs><style>.b{fill:#005473;}.c{fill:#fff;stroke:#005473;stroke-linecap:round;stroke-linejoin:round;stroke-width:2.23px;}</style></defs><path class="c" d="M49.24,68.32h-15.08c-.01-.09-.04-.2-.04-.31,0-2.72-.06-5.44,.02-8.16,.13-4.18,1.58-7.82,4.58-10.8,3.06-3.03,6.08-6.1,9.14-9.13,1.78-1.76,4.59-1.04,5.23,1.34,.31,1.15,.02,2.2-.83,3.06-1.42,1.44-2.86,2.87-4.29,4.3-.62,.62-.68,1.11-.22,1.59,.46,.47,1.11,.44,1.68-.13,1.68-1.66,3.34-3.33,5.01-5.01,.71-.71,1.07-1.58,1.02-2.58-.09-1.84-.22-3.68-.33-5.52-.14-2.16-.26-4.31-.42-6.47-.14-1.83,1.26-3.34,2.88-3.45,1.96-.13,3.42,1.18,3.57,3.16,.21,2.85,.4,5.69,.61,8.54,.15,2.11,.34,4.22,.48,6.34,.15,2.27-.61,4.22-2.19,5.82-2.74,2.79-5.53,5.52-8.29,8.29-.76,.76-1.51,1.52-2.24,2.31-.16,.18-.28,.48-.28,.72-.02,1.83-.01,3.65-.01,5.48v.62Z"/><path class="c" d="M29.23,68.34H14.12c-.01-.22-.03-.43-.03-.64,0-1.81,.01-3.61-.02-5.42,0-.29-.15-.65-.36-.86-3.47-3.51-6.98-7-10.45-10.51-1.86-1.88-2.39-4.21-2.13-6.78,.13-1.3,.22-2.6,.32-3.91,.15-1.92,.29-3.83,.43-5.75,.1-1.36,.21-2.73,.28-4.09,.09-1.69,1.03-2.88,2.61-3.24,1.91-.43,3.85,1.06,3.82,3.02-.03,1.64-.17,3.29-.28,4.93-.16,2.45-.34,4.91-.47,7.36-.05,.96,.28,1.85,.97,2.54,1.69,1.71,3.39,3.4,5.1,5.09,.18,.17,.41,.34,.64,.4,.49,.12,.91-.04,1.17-.49,.27-.46,.15-.87-.21-1.23-1.48-1.47-2.95-2.95-4.42-4.42-.97-.97-1.23-2.36-.69-3.61,.47-1.1,1.67-1.85,2.91-1.79,.82,.04,1.54,.36,2.12,.94,2.56,2.55,5.14,5.08,7.66,7.66,1.23,1.26,2.49,2.52,3.5,3.95,1.79,2.53,2.57,5.44,2.61,8.54,.03,2.54,.01,5.08,.02,7.62,0,.21,0,.43,0,.67Z"/><path class="b" d="M28.28,36.7c-1.67,0-3.27,.01-4.88,0-1.69-.02-3.09-1.31-3.34-3.05-.21-1.44,.81-3.05,2.25-3.52,.41-.13,.85-.19,1.28-.2,1.53-.02,3.05,0,4.68,0,0-.22,0-.4,0-.59,0-1.43,0-2.86,0-4.29,0-1.85,1.52-3.37,3.36-3.36,1.93,0,3.43,1.47,3.43,3.34,0,1.57,0,3.14,0,4.7,0,.04,.02,.07,.05,.18,1.26,0,2.54,0,3.82,0,.96,0,1.91,0,2.76,.54,1.26,.8,1.86,2.37,1.44,3.83-.4,1.4-1.75,2.42-3.24,2.43-1.55,.01-3.1,0-4.65,0-.04,0-.07,.02-.16,.04,0,.17-.03,.37-.03,.56,0,1.53,0,3.06,0,4.58,0,1.76-1.26,3.12-3.08,3.33-1.62,.19-3.23-.94-3.6-2.55-.07-.32-.11-.66-.12-1-.01-1.63,0-3.25,0-4.97Z"/><path class="b" d="M18.37,21.58c0,1.29,.01,2.48,0,3.67-.02,1.32-.92,2.4-2.07,2.52-1.37,.15-2.56-.59-2.84-1.87-.12-.57-.07-1.18-.08-1.78-.01-.81,0-1.62,0-2.49-1.14,0-2.25-.01-3.35,0-1.07,.02-1.97-.31-2.5-1.29-.5-.92-.41-1.84,.19-2.69,.49-.7,1.2-1,2.05-1,.99,0,1.98,0,2.98,0,.19,0,.39-.02,.63-.03,0-1.21,0-2.37,0-3.54,0-1.45,1.05-2.56,2.45-2.6,1.38-.04,2.5,1.06,2.54,2.52,.03,1.19,0,2.38,0,3.64,1.24,0,2.44-.01,3.65,0,1.29,.01,2.17,.8,2.47,2.04,.3,1.22-.74,2.89-2.32,2.88-1.25,0-2.49,0-3.8,0Z"/><path class="b" d="M36.29,5.32c.84,0,1.65-.01,2.46,0,.45,0,.92,0,1.35,.12,.98,.28,1.52,1.2,1.43,2.26-.09,.94-.83,1.74-1.8,1.84-.69,.07-1.39,.04-2.08,.05-.44,0-.87,0-1.39,0,0,1.08,.01,2.13,0,3.17-.02,1.5-1.46,2.51-2.86,2.02-.84-.29-1.41-1.07-1.43-1.99-.02-1.05,0-2.1,0-3.21-1.05,0-2.06,.02-3.06,0-1.36-.03-2.24-.91-2.23-2.18,.01-1.08,.76-1.96,1.84-2.05,.89-.07,1.78-.04,2.68-.05,.23,0,.47,0,.77,0,0-1.1,0-2.12,0-3.15,0-.9,.42-1.56,1.23-1.94,1.43-.67,3.01,.27,3.07,1.85,.03,.87,0,1.75,0,2.62,0,.19,.02,.39,.03,.64Z"/><path class="b" d="M49.73,22.25c0,.99,0,1.98,0,2.97,0,1.27-.87,2.27-2.09,2.27-1.19,0-2.13-.74-2.21-2.16-.04-.67,0-1.35,0-2.02,0-.35,0-.71,0-1.14-1.05,0-2.05,0-3.05,0-1.33,0-2.25-.88-2.24-2.16,0-1.19,.98-2.12,2.24-2.13,.99-.01,1.98,0,3.06,0,0-.47,0-.92,0-1.37,0-.62-.02-1.23,0-1.85,.06-1.23,1.03-2.12,2.22-2.07,1.16,.05,2.05,.99,2.06,2.17,0,1.01,0,2.02,0,3.12,1.05,0,2.07,0,3.1,0,1.1,.01,1.98,.74,2.19,1.8,.24,1.24-.73,2.45-2.01,2.48-1.05,.02-2.1,.01-3.16,.02-.02,0-.03,.02-.12,.07Z"/></svg>