<svg xmlns="http://www.w3.org/2000/svg" viewBox="0 0 45.21 45.21"><defs><style>.cls-1{fill:#5ea397;}.cls-2{fill:#64ac9a;}.cls-3{fill:#559583;}.cls-4{fill:#fff;}</style></defs><title>footer Instagram</title><g id="Capa_2" data-name="Capa 2"><g id="Capa_1-2" data-name="Capa 1"><path class="cls-1" d="M44.57,8c-7.12,1.51-15.18,1.13-22.86,1.9C13.24,11.34,9.92,26.92,0,27.27v6.11A11.86,11.86,0,0,0,10.49,45.13C20.22,41.78,29.18,35,35.63,26.94c2.18-3.28,5.72-3.85,9.58-3.7V11.83A11.66,11.66,0,0,0,44.57,8Z"/><path class="cls-2" d="M21.71,9.93c7.68-.77,15.74-.39,22.86-1.9A11.86,11.86,0,0,0,33.38,0H11.83A11.86,11.86,0,0,0,0,11.83V27.27C9.92,26.92,13.24,11.34,21.71,9.93Z"/><path class="cls-3" d="M35.63,26.94C29.18,35,20.22,41.78,10.49,45.13a11.9,11.9,0,0,0,1.34.08H33.38A11.86,11.86,0,0,0,45.21,33.38V23.24C41.35,23.09,37.81,23.66,35.63,26.94Z"/><path class="cls-4" d="M29.62,14.09a1.55,1.55,0,1,0,1.56,1.55A1.54,1.54,0,0,0,29.62,14.09Z"/><path class="cls-4" d="M22.71,16.08a6.53,6.53,0,1,0,6.53,6.53A6.53,6.53,0,0,0,22.71,16.08Zm0,10.71a4.19,4.19,0,1,1,4.18-4.18A4.19,4.19,0,0,1,22.71,26.79Z"/><path class="cls-4" d="M27.9,35.86H17.31a8,8,0,0,1-8-8V17.31a8,8,0,0,1,8-8H27.9a8,8,0,0,1,8,8V27.9A8,8,0,0,1,27.9,35.86Zm-10.59-24a5.47,5.47,0,0,0-5.46,5.46V27.9a5.47,5.47,0,0,0,5.46,5.46H27.9a5.47,5.47,0,0,0,5.46-5.46V17.31a5.47,5.47,0,0,0-5.46-5.46Z"/></g></g></svg>