<svg id="Neusa" xmlns="http://www.w3.org/2000/svg" viewBox="0 0 97.6 101.62"><defs><style>.cls-1{fill:#fff;}.cls-2{fill:#00a19b;}.cls-3{fill:#7a6569;}.cls-4{fill:#006e96;}.cls-5{fill:#c2d500;}</style></defs><path class="cls-1" d="M96.43,2.62A2.93,2.93,0,0,0,91,1.82c0,.08-4.67,8-20.26,16.79A5.84,5.84,0,0,0,59.31,18,38,38,0,0,0,48.8,32.87,38,38,0,0,0,38.29,18a5.84,5.84,0,0,0-11.45.65C11.25,9.85,6.63,1.91,6.59,1.84a2.92,2.92,0,0,0-5.42.78A66.47,66.47,0,0,0,.49,23C2.36,37.15,9.44,46.56,21,50.25a12.19,12.19,0,0,0-5.47,3.06c-6,5.72-3.69,13.17-2,18.61.71,2.28-.11,5.82-.72,8.4-.24,1.06-.48,2.05-.61,2.92a2.93,2.93,0,0,0,2.25,3.28c0,.27,0,.54,0,.82v.09A13.94,13.94,0,0,0,15.55,93a14.46,14.46,0,0,0,13.28,8.58,14.66,14.66,0,0,0,5.31-1,12.45,12.45,0,0,0,2.28-1.14l.31.33a5.66,5.66,0,0,0,1.64,1.09,5.24,5.24,0,0,0,2.11.43,5,5,0,0,0,3.82-1.65A5.36,5.36,0,0,0,45.71,96V92.27a5.84,5.84,0,0,0,6.1,0V96a5.34,5.34,0,0,0,1.42,3.71A5.06,5.06,0,0,0,57,101.34a5.33,5.33,0,0,0,2.89-.83,5.17,5.17,0,0,0,4.88.41,5.39,5.39,0,0,0,2.82-2.79A5.26,5.26,0,0,0,68,96.05v-.91a5.37,5.37,0,0,0,2,.39h.58a1.44,1.44,0,0,1,.51.09,1,1,0,0,1,.37.21.82.82,0,0,1,.2.29,1,1,0,0,1,.07.34c0,.05,0,.11,0,.17a5.16,5.16,0,1,0,10.27-1,10.66,10.66,0,0,0-.37-2,10.83,10.83,0,0,0-1.22-2.78A10.35,10.35,0,0,0,79,89a9.34,9.34,0,0,0,.46-.89,10.91,10.91,0,0,0,.8-2.66,2.91,2.91,0,0,0,2.27,1.11,3.27,3.27,0,0,0,.53,0,2.91,2.91,0,0,0,2.36-3.3c-.13-.88-.36-1.87-.61-2.93-.6-2.58-1.42-6.12-.71-8.4,1.68-5.44,4-12.89-2-18.61a12.11,12.11,0,0,0-5.46-3.06C88.16,46.56,95.23,37.15,97.11,23A66.47,66.47,0,0,0,96.43,2.62Z"/><path class="cls-2" d="M28.38,22.77C9.24,12.78,4,3.24,4,3.24S-3.9,40.05,22.69,47.72C43.36,53.69,47,67.26,47,67.26S52.91,35.57,28.38,22.77ZM24.07,42.89a19.4,19.4,0,0,1-11.27-8A30,30,0,0,1,8.4,22.18a51.19,51.19,0,0,1-.46-7A91.25,91.25,0,0,0,26,27.23c8.63,4.5,14,12.28,15.85,23.13.11.63.2,1.26.28,1.87A48,48,0,0,0,24.07,42.89Z"/><path class="cls-2" d="M93.57,3.24s-5.21,9.54-24.35,19.53C44.69,35.57,50.56,67.26,50.56,67.26s3.68-13.57,24.35-19.54C101.49,40.05,93.57,3.24,93.57,3.24ZM89.2,22.18a30.13,30.13,0,0,1-4.4,12.68,19.4,19.4,0,0,1-11.27,8,48.14,48.14,0,0,0-18.11,9.34c.09-.61.18-1.24.29-1.87,1.89-10.85,7.22-18.63,15.84-23.13a91.25,91.25,0,0,0,18.1-12.09A49.6,49.6,0,0,1,89.2,22.18Z"/><circle class="cls-2" cx="48.76" cy="87.28" r="2.93"/><path class="cls-3" d="M22.67,84.89A7.17,7.17,0,0,1,24,82.81a6.71,6.71,0,0,1,2-1.48,6,6,0,0,1,2.45-.6,7.31,7.31,0,0,1,2.34.31,6.22,6.22,0,0,1,2.19,1.21c.24.19.5.38.78.56a2.79,2.79,0,0,0,.88.4,2.11,2.11,0,0,0,1,0,2.61,2.61,0,0,0,1.11-.62,2.22,2.22,0,0,0,.58-.79,2.53,2.53,0,0,0,.18-.94,2.65,2.65,0,0,0-.23-1,3.06,3.06,0,0,0-.64-.92,9.7,9.7,0,0,0-3.49-2.28,11.8,11.8,0,0,0-4.27-.78,11.21,11.21,0,0,0-4.48.9,11.59,11.59,0,0,0-6.12,6.07,11,11,0,0,0-.91,4.47l0,0,0,0v0a10.77,10.77,0,0,0,.91,4.43,11.12,11.12,0,0,0,2.47,3.58,11.58,11.58,0,0,0,8.13,3.26,11.8,11.8,0,0,0,4.27-.78,9.55,9.55,0,0,0,3.49-2.27,3.19,3.19,0,0,0,.64-.92,2.69,2.69,0,0,0,.23-1,2.48,2.48,0,0,0-.18-.93A2.13,2.13,0,0,0,36.7,92a2.61,2.61,0,0,0-1.11-.62,2.25,2.25,0,0,0-1,0,2.73,2.73,0,0,0-.88.38c-.28.18-.54.37-.78.56a6,6,0,0,1-2.19,1.24,7,7,0,0,1-2.34.29,5.69,5.69,0,0,1-2.47-.59,6.27,6.27,0,0,1-2-1.48,6.77,6.77,0,0,1-1.3-2.07,6.35,6.35,0,0,1-.47-2.38l0,0,0,0A6.19,6.19,0,0,1,22.67,84.89Z"/><path class="cls-3" d="M79.18,95.94h0a8.33,8.33,0,0,0-.27-1.44,7.75,7.75,0,0,0-.9-2,7.92,7.92,0,0,0-1.39-1.67,8.39,8.39,0,0,0-1.8-1.25,7,7,0,0,0,2-2.6,8.37,8.37,0,0,0,.7-3.47,7.3,7.3,0,0,0-.67-3.13A8.24,8.24,0,0,0,75,77.86a8.37,8.37,0,0,0-2.63-1.65,8.52,8.52,0,0,0-3.18-.6,9.34,9.34,0,0,0-3.6.67,8.24,8.24,0,0,0-2.8,1.87A8.47,8.47,0,0,0,61,81a10.05,10.05,0,0,0-.65,3.66V96.05a2.2,2.2,0,0,0,.19.92,2.38,2.38,0,0,0,.51.75,2.17,2.17,0,0,0,.75.51,2.31,2.31,0,0,0,.91.18,2.41,2.41,0,0,0,.93-.18,2.35,2.35,0,0,0,.77-.51,2.52,2.52,0,0,0,.5-.75,2.2,2.2,0,0,0,.19-.92V84.62a6.15,6.15,0,0,1,.37-2.12,3.9,3.9,0,0,1,.93-1.42,3.44,3.44,0,0,1,1.31-.78,4.51,4.51,0,0,1,1.51-.25,4.26,4.26,0,0,1,1.54.28A3.82,3.82,0,0,1,72,81.1a3.44,3.44,0,0,1,.84,1.13,3.28,3.28,0,0,1,.3,1.39A5.13,5.13,0,0,1,73,85a4.09,4.09,0,0,1-.58,1.25,3.26,3.26,0,0,1-.94.91,2.55,2.55,0,0,1-1.27.37h-.09a2.46,2.46,0,0,0-1,.19,2.72,2.72,0,0,0-.8.55,2.5,2.5,0,0,0-.54.81,2.54,2.54,0,0,0-.2,1,2.47,2.47,0,0,0,.2,1,2.57,2.57,0,0,0,.54.8,2.69,2.69,0,0,0,.8.54,2.47,2.47,0,0,0,1,.2h.58a4.29,4.29,0,0,1,1.51.27,3.94,3.94,0,0,1,1.3.76,3.75,3.75,0,0,1,1.26,2.67h0a2.24,2.24,0,0,0,4.47-.11A2.17,2.17,0,0,0,79.18,95.94Z"/><path class="cls-3" d="M58.45,81.77a10.72,10.72,0,0,0-5.64-5.34,10.79,10.79,0,0,0-8.13,0A10.73,10.73,0,0,0,39,81.91a10.07,10.07,0,0,0-.94,4,.44.44,0,0,1,0,.1s0,.08,0,.11V96a2.57,2.57,0,0,0,.19,1,2.5,2.5,0,0,0,.53.78,2.72,2.72,0,0,0,.77.51,2.34,2.34,0,0,0,.95.19,2.2,2.2,0,0,0,1.67-.7A2.48,2.48,0,0,0,42.79,96V86.27a6.11,6.11,0,0,1,.49-2.3,5.93,5.93,0,0,1,1.28-1.87,6.24,6.24,0,0,1,1.88-1.27,6,6,0,0,1,4.62,0A6.06,6.06,0,0,1,53,82.09a5.92,5.92,0,0,1,1.29,1.85,5.48,5.48,0,0,1,.48,2.28V96a2.41,2.41,0,0,0,.64,1.72,2.17,2.17,0,0,0,1.65.7,2.42,2.42,0,0,0,1.74-.7A2.28,2.28,0,0,0,59.48,96V86a1.19,1.19,0,0,0,0-.31A10,10,0,0,0,58.45,81.77Z"/><ellipse class="cls-4" cx="66.38" cy="62.87" rx="5.15" ry="2.72" transform="translate(-19.31 30.99) rotate(-23.04)"/><path class="cls-4" d="M81.31,71.05c1.75-5.64,3.32-11.29-1.23-15.63-3.92-3.73-7.52-1.84-12.48-5-14.2,6.57-17,16.74-17,16.82A10.18,10.18,0,0,0,53.25,72c6.1,5.1,10.93-2,20.5,1.6A14.43,14.43,0,0,1,78.81,77a15,15,0,0,1,3.72,6.65C82.09,80.69,80,75.12,81.31,71.05Zm-12.8-3.18c-5.24,2.22-10.44,1.79-11.62-1s2.13-6.8,7.37-9,10.43-1.8,11.61,1S73.75,65.64,68.51,67.87Z"/><ellipse class="cls-4" cx="31.22" cy="62.87" rx="2.72" ry="5.15" transform="translate(-38.85 66.99) rotate(-66.96)"/><path class="cls-4" d="M30,50.43c-5,3.15-8.56,1.26-12.48,5-4.56,4.34-3,10-1.23,15.63,1.26,4.07-.78,9.64-1.23,12.62A15.14,15.14,0,0,1,18.79,77a14.43,14.43,0,0,1,5.06-3.42c9.57-3.59,14.4,3.5,20.49-1.6A10.1,10.1,0,0,0,47,67.25C47,67.17,44.2,57,30,50.43ZM40.7,66.9c-1.17,2.76-6.37,3.19-11.61,1s-8.53-6.28-7.36-9,6.37-3.19,11.61-1S41.88,64.14,40.7,66.9Z"/><path class="cls-4" d="M32.63,22.36a2.85,2.85,0,0,0,1.13-.23A35.69,35.69,0,0,1,47.44,38v0A35.76,35.76,0,0,0,35.56,19.48v-.06a2.93,2.93,0,1,0-2.93,2.94Z"/><path class="cls-4" d="M51.7,41.05A2.94,2.94,0,1,0,48.77,44,2.93,2.93,0,0,0,51.7,41.05Z"/><path class="cls-4" d="M63.84,22.13a2.85,2.85,0,0,0,1.13.23A2.94,2.94,0,1,0,62,19.42v.06A35.7,35.7,0,0,0,50.16,38v0A35.69,35.69,0,0,1,63.84,22.13Z"/><path class="cls-5" d="M41.89,50.36C40,39.51,34.67,31.73,26,27.23A91.25,91.25,0,0,1,7.94,15.14a51.19,51.19,0,0,0,.46,7,30,30,0,0,0,4.4,12.68,19.4,19.4,0,0,0,11.27,8,48,48,0,0,1,18.1,9.34C42.09,51.62,42,51,41.89,50.36ZM25.47,38.06a14.39,14.39,0,0,1-8.49-6,20.78,20.78,0,0,1-2.61-5.82c2.89,1.89,6,3.71,9.35,5.44a23.36,23.36,0,0,1,9.7,9.26A62.64,62.64,0,0,0,25.47,38.06Z"/><path class="cls-5" d="M71.55,27.23c-8.62,4.5-13.95,12.28-15.84,23.13-.11.63-.2,1.26-.29,1.87a48.14,48.14,0,0,1,18.11-9.34,19.4,19.4,0,0,0,11.27-8,30.13,30.13,0,0,0,4.4-12.68,49.6,49.6,0,0,0,.45-7A91.25,91.25,0,0,1,71.55,27.23Zm9.07,4.83a14.39,14.39,0,0,1-8.49,6,62.64,62.64,0,0,0-7.95,2.88,23.3,23.3,0,0,1,9.7-9.26q5-2.59,9.35-5.44A20.78,20.78,0,0,1,80.62,32.06Z"/></svg>