<?xml version="1.0" encoding="UTF-8"?><svg xmlns="http://www.w3.org/2000/svg" viewBox="0 0 94.96 94.96"><defs><style>.d{fill:#005473;}.e,.f{fill:#e4f3f6;}.g,.h{fill:#fff;}.h,.f{stroke:#005473;stroke-linecap:round;stroke-linejoin:round;stroke-width:1.75px;}.i{fill:#e8eff4;}</style></defs><g id="a"/><g id="b"><g id="c"><g><circle class="i" cx="47.48" cy="47.48" r="47.48"/><circle class="g" cx="47.48" cy="47.89" r="40.42"/></g><g><path class="d" d="M82.53,44.11c0,3.48-.01,6.96,.01,10.43,0,.54-.12,.73-.69,.72-2.3-.03-4.59-.01-6.89-.02-.34,0-.65,.03-.97,.19-2.95,1.48-6.12,2.14-9.36,2.5-2.33,.26-4.66,.38-7,.16-.44-.04-.58,.12-.65,.52-.62,3.6-1.27,7.19-1.89,10.78-.58,3.39-3.67,5.56-7.04,4.96-8.52-1.52-17.05-3.01-25.57-4.51-4.54-.8-9.07-1.59-13.61-2.41-3.29-.59-5.4-3.76-4.76-7.25,1.47-7.94,2.82-15.91,4.25-23.86,.67-3.69,3.65-5.64,7.37-4.96,5.85,1.06,11.7,2.07,17.55,3.12,.27,.05,.47-.02,.69-.13,5.71-2.95,11.43-5.9,17.15-8.85,1.26-.65,2.55-1.31,4-.81,1.49,.51,2.94,1.15,4.41,1.74,5.27,2.1,10.54,4.2,15.81,6.3,.32,.13,.63,.18,.97,.18,1.83,0,3.66,.03,5.48-.02,.65-.02,.75,.22,.75,.79-.02,3.48-.01,6.96-.01,10.43Z"/><path class="f" d="M90.96,44.03c0,3.97,0,7.94,0,11.9,0,1.19-.52,1.72-1.7,1.72-.96,0-1.92,.01-2.88,0-.99-.01-1.57-.6-1.57-1.59,0-8.02,0-16.05,0-24.07,0-1,.59-1.57,1.58-1.58,1,0,2.01,0,3.01,0,1.01,0,1.56,.56,1.56,1.59,0,4.01,0,8.02,0,12.04Z"/><path class="e" d="M54.22,40.99c-.67,.29-1.31,.27-1.93,.35-4.57,.6-9.15,1.15-13.71,1.77-2.78,.38-4.86,3.14-4.6,5.98,.27,3,2.81,5.3,5.81,5.1,2.04-.13,4.07-.47,6.1-.73,2.94-.37,5.88-.75,8.81-1.14,.56-.08,.73,.02,.6,.65-.42,2.14-1.32,7.36-1.66,9.51-.08,.53-.3,.59-.75,.51-7.93-1.41-15.86-2.82-23.8-4.22-6.9-1.22-13.81-2.44-20.71-3.63-.53-.09-.59-.28-.51-.74,.87-4.91,2.25-12.89,3.14-17.79,.36-1.96,2.02-3.01,4.02-2.66,8.48,1.49,16.97,2.98,25.45,4.47,4.34,.76,8.68,1.53,13.02,2.3,.22,.04,.48,.03,.74,.26Z"/><path class="e" d="M6.66,61.3c.06-.36,.17-.97,.26-1.58,.06-.38,.31-.3,.55-.26,3.33,.59,6.66,1.18,9.99,1.77,6.46,1.14,12.93,2.28,19.4,3.42,5.11,.9,10.21,1.8,15.32,2.69,.41,.07,.59,.23,.47,.66-.08,.28-.1,.57-.16,.85-.43,2.16-1.97,3.24-4.14,2.86-8.46-1.49-16.92-2.99-25.38-4.48-4.43-.78-8.85-1.56-13.28-2.33-1.86-.32-3.04-1.59-3.03-3.59Z"/><path class="h" d="M82.53,44.11c0-3.48-.01-6.96,.01-10.43,0-.57-.09-.81-.75-.79-1.83,.05-3.66,.01-5.48,.02-.34,0-.66-.05-.97-.18-5.27-2.11-10.54-4.2-15.81-6.3-1.47-.58-2.91-1.23-4.41-1.74-1.45-.5-2.75,.16-4,.81-5.72,2.94-11.43,5.89-17.15,8.85-.16,.08-.3,.13-.47,.14l26.32,4.56s-.03,.25-.09,.69c-.73,.3-6.83,1.52-7.45,1.6-4.57,.6-9.15,1.15-13.71,1.77-2.78,.38-4.86,3.14-4.6,5.98,.27,3,2.81,5.3,5.81,5.1,2.04-.13,4.07-.47,6.1-.73,2.8-.35,9.09-1.18,12.21-1.59-.43,3.17-.76,5.71-.76,5.81,0,.28,.3,.41,.3,.41,2.34,.22,4.68,.1,7-.16,3.24-.36,6.42-1.01,9.36-2.5,.31-.16,.63-.19,.97-.19,2.3,0,4.59-.02,6.89,.02,.58,0,.7-.18,.69-.72-.02-3.48-.01-6.96-.01-10.43Z"/></g><path class="d" d="M20.68,40.03c-.3,1.71-.6,3.35-.86,5-.02,.14,.26,.39,.47,.49,2.97,1.43,3.95,4.5,2.11,6.69-.99,1.18-2.4,1.75-4.12,1.81-.38,1.04-.71,1.3-1.41,1.16-.69-.14-.91-.54-.84-1.53-.28-.14-.59-.27-.87-.44-1.91-1.12-2.78-2.64-2.62-4.53,.05-.63,.56-.98,1.21-.9,.62,.08,.99,.53,.96,1.14-.08,1.25,.53,2.26,1.68,2.75,.04-.16,.09-.32,.11-.48,.26-1.46,.51-2.93,.78-4.39,.06-.32-.03-.47-.39-.63-2.3-1.03-3.42-2.82-3.07-4.82,.34-1.95,2.18-3.41,4.56-3.58,.41-.03,.52-.16,.58-.47,.1-.56,.62-.84,1.24-.73,.62,.11,.99,.55,.89,1.12-.06,.33,.05,.47,.41,.63,2.06,.94,3.23,2.71,3.08,4.63,0,.1-.02,.2-.04,.3-.13,.52-.64,.8-1.22,.7-.6-.1-.99-.51-.92-1.06,.11-.98-.23-1.82-1.1-2.53-.09-.07-.19-.14-.29-.2-.06-.04-.14-.06-.31-.14Zm-2.09,12.04c1.34-.09,2.45-1.07,2.55-2.22,.1-1.1-.65-2.25-1.7-2.59l-.84,4.8Zm-.95-7.66l.83-4.74c-1.35,.13-2.43,1.11-2.52,2.24-.09,1.13,.62,2.17,1.69,2.5Z"/></g></g></svg>