<?xml version="1.0" encoding="UTF-8"?><svg xmlns="http://www.w3.org/2000/svg" viewBox="0 0 94.96 94.96"><defs><style>.d{fill:#005473;}.e,.f{fill:#fff;}.f,.g{stroke:#005473;stroke-linecap:round;stroke-linejoin:round;stroke-width:1.75px;}.g{fill:#e4f3f6;}.h{fill:#e8eff4;}</style></defs><g id="a"/><g id="b"><g id="c"><g><circle class="h" cx="47.48" cy="47.48" r="47.48"/><circle class="e" cx="47.48" cy="48.21" r="40.42"/><g><rect class="g" x="10.96" y="20.14" width="60.27" height="41.45" rx="3.51" ry="3.51"/><rect class="f" x="23.73" y="26.41" width="60.27" height="41.45" rx="2.91" ry="2.91"/><rect class="g" x="16.56" y="33.58" width="60.27" height="41.45" rx="2.61" ry="2.61"/><g><path class="d" d="M27.22,56.18v4.1c0,.19-.04,.36-.11,.51-.07,.16-.17,.29-.28,.41-.12,.12-.26,.21-.42,.28-.16,.07-.33,.1-.51,.1s-.36-.03-.52-.1c-.16-.07-.3-.16-.42-.28-.12-.12-.22-.25-.28-.41s-.1-.33-.1-.51v-11.05c0-.19,.03-.36,.1-.51,.07-.16,.16-.29,.28-.41,.12-.12,.26-.21,.42-.28,.16-.07,.33-.1,.52-.1h3.55c.58,0,1.12,.11,1.63,.33,.51,.22,.95,.51,1.33,.89s.68,.81,.9,1.31c.22,.5,.33,1.04,.33,1.62s-.11,1.11-.33,1.61c-.22,.5-.52,.93-.9,1.3s-.82,.66-1.33,.87c-.51,.21-1.05,.32-1.63,.32h-2.23Zm0-5.63v2.99h2.24c.2,0,.39-.04,.58-.13,.19-.09,.35-.2,.49-.34,.14-.14,.25-.31,.34-.49,.09-.19,.13-.38,.13-.58s-.04-.39-.13-.56-.2-.33-.34-.46c-.14-.13-.3-.23-.49-.31-.18-.07-.38-.11-.58-.11h-2.24Z"/><path class="d" d="M43.12,48.1c.59,.17,1.14,.4,1.66,.7,.52,.3,.98,.66,1.41,1.08s.79,.89,1.09,1.41c.3,.52,.54,1.07,.7,1.66,.17,.59,.25,1.21,.25,1.84s-.08,1.24-.24,1.82c-.16,.58-.39,1.12-.68,1.63-.29,.51-.65,.97-1.06,1.39-.41,.42-.87,.78-1.37,1.09,0,.16,.06,.3,.17,.4,.11,.1,.25,.15,.41,.15s.3,.03,.44,.09c.13,.06,.25,.14,.35,.24,.1,.1,.18,.22,.24,.36,.06,.14,.09,.29,.09,.44s-.03,.3-.09,.44c-.06,.14-.14,.26-.24,.36-.1,.1-.22,.18-.35,.24-.14,.06-.28,.09-.44,.09h-.05c-.33,0-.64-.06-.94-.15-.3-.1-.57-.23-.82-.39-.25-.17-.47-.37-.66-.6s-.34-.49-.44-.78c-.43,.08-.86,.12-1.27,.12-.96,0-1.86-.18-2.7-.54-.84-.36-1.57-.86-2.2-1.49s-1.11-1.36-1.47-2.2c-.36-.84-.54-1.74-.54-2.7,0-.64,.08-1.25,.25-1.84,.16-.59,.39-1.14,.69-1.66,.3-.52,.66-.98,1.08-1.41s.89-.78,1.4-1.08c.51-.3,1.06-.53,1.65-.7,.59-.17,1.2-.25,1.84-.25s1.25,.08,1.84,.25Zm-3.51,2.76c-.52,.22-.97,.53-1.35,.91-.38,.38-.69,.84-.91,1.35-.22,.52-.33,1.07-.33,1.66,0,.7,.14,1.34,.43,1.92,.29,.58,.68,1.07,1.17,1.45,.11-.28,.26-.53,.45-.76s.41-.42,.66-.59,.52-.29,.82-.38c.3-.09,.61-.13,.94-.13,.6,0,1.15,.15,1.64,.44s.86,.68,1.11,1.16c.41-.38,.74-.84,.97-1.38,.23-.53,.35-1.11,.35-1.74,0-.59-.11-1.14-.33-1.66-.22-.52-.52-.97-.91-1.35-.39-.38-.84-.69-1.36-.91-.52-.22-1.08-.34-1.67-.34s-1.16,.11-1.67,.34Zm1.49,7.84c-.11,.09-.17,.21-.19,.35,.06,0,.13,.01,.19,.01h.19c.26,0,.51-.02,.76-.06-.03-.13-.09-.23-.19-.31-.1-.08-.22-.12-.36-.12-.15,0-.28,.05-.38,.14Z"/><path class="d" d="M58.63,53.26c-.12,.38-.28,.73-.48,1.04-.21,.32-.46,.61-.75,.86-.29,.25-.62,.46-.96,.62l2.18,3.85c.09,.16,.15,.33,.16,.5,.01,.17,0,.34-.05,.5-.05,.16-.12,.31-.23,.45-.11,.13-.24,.25-.4,.33-.16,.08-.33,.14-.5,.16-.17,.02-.34,0-.5-.04-.16-.05-.31-.12-.44-.22-.14-.1-.25-.23-.34-.39l-2.68-4.74h-1.23v4.1c0,.19-.04,.36-.11,.51-.07,.16-.17,.29-.28,.41-.12,.12-.26,.21-.42,.28-.16,.07-.33,.1-.51,.1s-.36-.03-.52-.1c-.16-.07-.3-.16-.42-.28-.12-.12-.22-.25-.28-.41s-.1-.33-.1-.51v-11.05c0-.19,.03-.36,.1-.51,.07-.16,.16-.29,.28-.41,.12-.12,.26-.21,.42-.28,.16-.07,.33-.1,.52-.1h3.55c.58,0,1.12,.11,1.63,.33,.51,.22,.95,.51,1.33,.89s.68,.81,.9,1.31c.22,.5,.33,1.04,.33,1.62,0,.41-.06,.81-.18,1.18Zm-6.23-2.71v2.99h2.24c.2,0,.39-.04,.58-.13,.19-.09,.35-.2,.49-.34,.14-.14,.25-.31,.34-.49,.09-.19,.13-.38,.13-.58s-.04-.39-.13-.56-.2-.33-.34-.46c-.14-.13-.3-.23-.49-.31-.18-.07-.38-.11-.58-.11h-2.24Z"/><path class="d" d="M63.01,55.65c-.6-.22-1.11-.5-1.52-.84-.42-.34-.74-.74-.97-1.2s-.34-.99-.34-1.59,.12-1.16,.37-1.67c.25-.51,.59-.95,1.01-1.32,.43-.37,.92-.66,1.49-.86,.57-.21,1.16-.31,1.8-.31,.43,0,.85,.04,1.26,.13,.42,.09,.81,.21,1.17,.38,.37,.17,.7,.38,1,.63,.3,.25,.55,.55,.75,.88,.07,.12,.11,.25,.13,.37,.01,.13,0,.25-.02,.38s-.07,.24-.13,.35c-.06,.11-.13,.2-.21,.27-.09,.09-.2,.17-.33,.22-.13,.06-.26,.09-.41,.11-.15,.02-.3,0-.45-.03-.16-.04-.31-.1-.46-.2-.19-.14-.36-.26-.51-.36-.15-.11-.31-.2-.47-.27-.16-.07-.35-.12-.55-.16s-.45-.05-.73-.05c-.31,0-.6,.04-.85,.11s-.47,.18-.65,.31c-.18,.14-.32,.29-.42,.47-.1,.18-.14,.38-.14,.6,0,.27,.07,.49,.21,.66,.14,.17,.34,.31,.6,.43,.26,.12,.58,.22,.95,.3,.37,.08,.79,.17,1.26,.26,.48,.11,.96,.25,1.42,.44,.46,.19,.87,.43,1.24,.73,.36,.3,.66,.66,.88,1.1,.22,.43,.34,.95,.34,1.56s-.12,1.14-.37,1.66c-.25,.52-.59,.97-1.03,1.35-.44,.38-.95,.69-1.55,.91-.6,.22-1.25,.34-1.95,.34-.55,0-1.07-.07-1.57-.21-.5-.14-.96-.33-1.37-.58s-.77-.52-1.09-.85c-.31-.32-.55-.67-.73-1.03-.1-.21-.15-.41-.17-.6-.01-.19,.01-.36,.06-.51,.05-.16,.13-.29,.24-.41,.11-.12,.23-.21,.37-.29,.33-.18,.65-.21,.93-.11,.29,.1,.58,.34,.89,.72,.3,.41,.65,.71,1.06,.92s.89,.31,1.46,.31c.27,0,.53-.03,.79-.1,.26-.07,.49-.16,.7-.29,.21-.12,.37-.28,.5-.46,.12-.18,.19-.39,.19-.62,0-.28-.06-.51-.19-.68-.13-.17-.29-.3-.49-.4-.2-.1-.42-.17-.67-.22s-.48-.1-.72-.14c-.74-.13-1.41-.3-2-.53Z"/></g></g></g></g></g></svg>