<?xml version="1.0" encoding="UTF-8"?><svg xmlns="http://www.w3.org/2000/svg" viewBox="0 0 94.96 94.96"><defs><style>.d{fill:#005473;}.e,.f{fill:#fff;}.f,.g,.h{stroke-linecap:round;stroke-linejoin:round;}.f,.g,.h,.i{stroke:#005473;stroke-width:1.75px;}.g{fill:#8ed0de;}.h{fill:#e4f3f6;}.i{fill:none;stroke-miterlimit:10;}.j{fill:#e8eff4;}</style></defs><g id="a"/><g id="b"><g id="c"><g><circle class="j" cx="47.48" cy="47.48" r="47.48"/><circle class="e" cx="47.48" cy="48.32" r="40.42"/><g><g><rect class="h" x="16.32" y="19.13" width="59.76" height="48.06" rx="5.11" ry="5.11"/><rect class="g" x="35.6" y="67.19" width="20.69" height="3.29"/><path class="f" d="M35.09,70.48h21.39c2.34,0,4.24,1.9,4.24,4.24v1.66H30.84v-1.66c0-2.34,1.9-4.24,4.24-4.24Z"/><line class="i" x1="16.32" y1="59.04" x2="76.08" y2="59.04"/></g><g><rect class="d" x="25.91" y="34.28" width="25.23" height="1.57"/><rect class="d" x="25.91" y="39.76" width="25.23" height="1.57"/><rect class="d" x="25.91" y="45.64" width="25.23" height="1.57"/><circle class="d" cx="22.95" cy="35.05" r="1.27"/><circle class="d" cx="22.95" cy="40.54" r="1.27"/><circle class="d" cx="22.95" cy="46.04" r="1.27"/></g><polygon class="f" points="73.75 35.17 58.66 34.28 60.98 49.63 64.89 45.51 73.04 53.34 78.64 46.91 70.39 39.64 73.75 35.17"/></g></g></g></g></svg>