<svg xmlns="http://www.w3.org/2000/svg" viewBox="0 0 45.21 45.21"><defs><style>.cls-1{fill:#559583;}.cls-2{fill:#64ac9a;}.cls-3{fill:#5ea397;}.cls-4{fill:#fff;}</style></defs><title>footer Youtube</title><g id="Capa_2" data-name="Capa 2"><g id="Capa_1-2" data-name="Capa 1"><path class="cls-1" d="M30.72,29.7A43.21,43.21,0,0,1,19.16,45.21H33.38A11.86,11.86,0,0,0,45.21,33.38V20.59C39.16,22,33.28,23.71,30.72,29.7Z"/><path class="cls-2" d="M9.07,11.14c11.35-1,21.33-5.5,31.31-8.82a11.76,11.76,0,0,0-7-2.32H11.83A11.86,11.86,0,0,0,0,11.83v10C2.67,17.46,3.16,11.14,9.07,11.14Z"/><path class="cls-3" d="M40.38,2.32c-10,3.32-20,7.79-31.31,8.82-5.91,0-6.4,6.32-9.07,10.68V33.38A11.86,11.86,0,0,0,11.83,45.21h7.33A43.21,43.21,0,0,0,30.72,29.7c2.56-6,8.44-7.72,14.49-9.11V11.83A11.83,11.83,0,0,0,40.38,2.32Z"/><path class="cls-4" d="M34.71,19.32a5.43,5.43,0,0,0-5.43-5.43H15.4A5.43,5.43,0,0,0,10,19.32v6.46a5.43,5.43,0,0,0,5.43,5.43H29.28a5.43,5.43,0,0,0,5.43-5.43ZM26.54,23l-6.22,3.08c-.24.13-1.07,0-1.07-.32V19.47c0-.28.83-.46,1.08-.32l6,3.24C26.54,22.53,26.8,22.9,26.54,23Z"/></g></g></svg>