<?xml version="1.0" encoding="UTF-8"?><svg xmlns="http://www.w3.org/2000/svg" viewBox="0 0 94.96 94.96"><defs><style>.d,.e{fill:#fff;}.f{stroke:#407183;}.f,.g{fill:#407183;stroke-miterlimit:10;stroke-width:1px;}.g,.e,.h{stroke:#005473;}.e,.h{stroke-linecap:round;stroke-linejoin:round;stroke-width:1.75px;}.h{fill:#e4f3f6;}.i{fill:#e8eff4;}</style></defs><g id="a"/><g id="b"><g id="c"><g><circle class="i" cx="47.48" cy="47.48" r="47.48"/><circle class="d" cx="47.48" cy="47.89" r="40.42"/><g><path class="h" d="M87.15,34.11l-49.11-15c-1.6-.49-3.29,.41-3.78,2.01l-11.49,37.63c-.49,1.6,.41,3.29,2.01,3.78l19.21,5.87c1.33,3.8,3.18,8.73,3.18,8.73l7.15-5.58,19.58,5.98c1.6,.49,3.29-.41,3.78-2.01l11.49-37.63c.49-1.6-.41-3.29-2.01-3.78Z"/><path class="h" d="M6.43,34.11l49.11-15c1.6-.49,3.29,.41,3.78,2.01l11.49,37.63c.49,1.6-.41,3.29-2.01,3.78l-19.21,5.87c-1.33,3.8-3.18,8.73-3.18,8.73l-7.15-5.58-19.58,5.98c-1.6,.49-3.29-.41-3.78-2.01L4.42,37.89c-.49-1.6,.41-3.29,2.01-3.78Z"/><path class="e" d="M72.55,24.84H21.2c-1.67,0-3.03,1.36-3.03,3.03v39.34c0,1.67,1.35,3.03,3.03,3.03h20.09c2.38,3.24,5.59,7.42,5.59,7.42l5.21-7.42h20.47c1.67,0,3.03-1.36,3.03-3.03V27.87c0-1.67-1.35-3.03-3.03-3.03Z"/><g><path class="f" d="M51.61,44.99c-.03-.27-.06-.77-.17-1.25-.54-2.57-2.47-4.24-5.02-4.36-2.68-.13-4.8,1.28-5.53,3.84-.77,2.75-.08,5.23,1.72,7.41,.47,.58,.34,1.2-.36,1.47-.5,.19-1.01,.35-1.5,.54-1.29,.5-2.63,.91-3.87,1.52-1.74,.86-2.55,2.98-1.98,4.83,.11,.35,.26,.69,.7,.56,.41-.12,.46-.45,.31-.83-.07-.19-.11-.41-.13-.61-.14-1.46,.59-2.69,2.11-3.3,1.66-.67,3.36-1.21,5.03-1.86,1.04-.4,1.34-2.03,.6-2.87-1.49-1.67-2.15-3.62-1.81-5.85,.36-2.32,2.05-3.8,4.27-3.84,2.28-.03,4.01,1.38,4.43,3.72,.4,2.24-.29,4.2-1.74,5.93-.21,.25-.41,.62-.41,.93-.03,1.44,.18,1.71,1.54,2.21,.13,.05,.25,.09,.38,.13,1.41,.51,2.85,.97,4.23,1.56,1.64,.7,2.28,2.18,1.83,3.89-.05,.18-.04,.43,.05,.58,.08,.13,.36,.25,.47,.2,.19-.1,.4-.3,.47-.5,.69-1.91-.25-4.19-2.18-5.02-1.67-.72-3.41-1.28-5.12-1.93-.73-.27-.87-.9-.35-1.5,1.33-1.55,1.95-3.37,2-5.62Zm-19.44-6.88c2.27,0,3.96,1.62,4.11,3.97,.12,1.94-.46,3.64-1.78,5.08-.66,.71-.4,2.28,.5,2.63,1.4,.55,2.82,1.04,4.24,1.51,.16,.05,.51-.14,.61-.32,.07-.12-.1-.44-.24-.6-.11-.13-.34-.16-.52-.22-1.13-.4-2.26-.79-3.39-1.2-.53-.19-.67-.81-.29-1.24,.97-1.1,1.56-2.38,1.82-3.81,.3-1.67,.11-3.27-.86-4.71-1.21-1.81-3.37-2.55-5.65-1.97-1.96,.5-3.46,2.3-3.68,4.48-.22,2.16,.35,4.11,1.72,5.81,.61,.76,.51,1.2-.39,1.6-.75,.33-1.52,.6-2.26,.96-.8,.39-1.63,.76-2.34,1.28-1.38,1.02-1.87,2.77-1.33,4.23,.13,.36,.33,.63,.76,.48,.4-.14,.36-.46,.25-.8-.38-1.16-.09-2.17,.81-2.94,.5-.42,1.09-.76,1.69-1.04,1.12-.53,2.28-.96,3.4-1.49,.91-.43,1.14-1.94,.45-2.69-1.25-1.36-1.82-2.98-1.77-4.8,.07-2.47,1.81-4.21,4.13-4.2Zm33.05,4.45c-.01-.22-.02-.56-.06-.9-.3-2.57-2.14-4.36-4.68-4.59-2.54-.22-4.65,1.17-5.35,3.68-.71,2.55-.05,4.85,1.59,6.89,.46,.57,.34,1.12-.33,1.37-.43,.16-.86,.3-1.29,.45-.81,.29-1.63,.54-2.41,.88-.18,.08-.25,.43-.37,.65,.23,.1,.51,.35,.69,.29,1.39-.45,2.77-.94,4.14-1.47,.97-.38,1.23-1.91,.53-2.69-1.45-1.63-2.08-3.54-1.65-5.7,.42-2.07,1.96-3.31,3.99-3.32,2.03,0,3.57,1.22,4.01,3.29,.45,2.14-.16,4.03-1.59,5.66-.32,.36-.43,.71-.42,1.18,0,.97,.48,1.52,1.37,1.87,1.26,.49,2.51,1.01,3.71,1.61,1.18,.59,2.23,1.82,1.65,3.65-.06,.19,.09,.58,.26,.68,.31,.19,.63-.01,.69-.35,.11-.61,.27-1.25,.2-1.85-.19-1.61-1.26-2.6-2.65-3.26-1.17-.55-2.38-1.02-3.56-1.54-.69-.3-.81-.85-.32-1.44,1.21-1.42,1.78-3.08,1.85-5.05Z"/><path class="g" d="M51.61,44.99c-.06,2.25-.67,4.07-2,5.62-.52,.6-.38,1.23,.35,1.5,1.71,.64,3.45,1.21,5.12,1.93,1.92,.83,2.87,3.11,2.18,5.02-.07,.2-.28,.4-.47,.5-.11,.05-.39-.07-.47-.2-.09-.15-.09-.4-.05-.58,.45-1.72-.19-3.2-1.83-3.89-1.38-.59-2.82-1.04-4.23-1.56-.13-.05-.25-.09-.38-.13-1.36-.5-1.57-.77-1.54-2.21,0-.32,.2-.68,.41-.93,1.44-1.73,2.13-3.68,1.74-5.93-.42-2.34-2.14-3.76-4.43-3.72-2.22,.03-3.92,1.51-4.27,3.84-.34,2.22,.32,4.18,1.81,5.85,.74,.83,.44,2.46-.6,2.87-1.67,.65-3.37,1.19-5.03,1.86-1.52,.61-2.26,1.84-2.11,3.3,.02,.21,.05,.42,.13,.61,.14,.38,.1,.71-.31,.83-.44,.13-.59-.21-.7-.56-.57-1.85,.23-3.97,1.98-4.83,1.24-.61,2.57-1.03,3.87-1.52,.5-.19,1.01-.35,1.5-.54,.69-.27,.83-.89,.36-1.47-1.79-2.19-2.49-4.67-1.72-7.41,.72-2.56,2.84-3.97,5.53-3.84,2.54,.12,4.47,1.79,5.02,4.36,.1,.48,.13,.98,.17,1.25Z"/><path class="g" d="M32.17,38.11c-2.33,0-4.06,1.74-4.13,4.2-.05,1.82,.52,3.44,1.77,4.8,.68,.74,.46,2.26-.45,2.69-1.12,.52-2.28,.96-3.4,1.49-.6,.28-1.19,.61-1.69,1.04-.91,.77-1.19,1.78-.81,2.94,.11,.34,.15,.66-.25,.8-.42,.15-.62-.12-.76-.48-.54-1.46-.05-3.2,1.33-4.23,.71-.53,1.54-.9,2.34-1.28,.74-.36,1.51-.63,2.26-.96,.9-.39,1-.84,.39-1.6-1.37-1.7-1.94-3.64-1.72-5.81,.22-2.18,1.72-3.98,3.68-4.48,2.28-.58,4.44,.16,5.65,1.97,.96,1.44,1.16,3.03,.86,4.71-.26,1.43-.85,2.71-1.82,3.81-.38,.43-.23,1.04,.29,1.24,1.13,.41,2.26,.8,3.39,1.2,.18,.06,.4,.1,.52,.22,.14,.16,.31,.48,.24,.6-.1,.17-.45,.37-.61,.32-1.43-.47-2.85-.96-4.24-1.51-.89-.35-1.16-1.92-.5-2.63,1.33-1.44,1.91-3.14,1.78-5.08-.15-2.35-1.85-3.97-4.11-3.97Z"/><path class="g" d="M65.22,42.56c-.08,1.97-.64,3.63-1.85,5.05-.5,.58-.38,1.14,.32,1.44,1.19,.52,2.39,.99,3.56,1.54,1.39,.66,2.46,1.65,2.65,3.26,.07,.6-.08,1.24-.2,1.85-.06,.34-.38,.55-.69,.35-.17-.11-.32-.49-.26-.68,.58-1.84-.47-3.06-1.65-3.65-1.2-.61-2.45-1.12-3.71-1.61-.89-.35-1.36-.9-1.37-1.87,0-.47,.1-.81,.42-1.18,1.43-1.62,2.03-3.51,1.59-5.66-.43-2.07-1.98-3.3-4.01-3.29-2.02,0-3.57,1.25-3.99,3.32-.43,2.16,.2,4.07,1.65,5.7,.69,.78,.43,2.31-.53,2.69-1.36,.53-2.75,1.02-4.14,1.47-.18,.06-.46-.18-.69-.29,.12-.23,.19-.58,.37-.65,.78-.34,1.6-.59,2.41-.88,.43-.15,.86-.29,1.29-.45,.67-.25,.79-.8,.33-1.37-1.65-2.04-2.3-4.33-1.59-6.89,.69-2.51,2.81-3.9,5.35-3.68,2.54,.23,4.38,2.02,4.68,4.59,.04,.34,.05,.68,.06,.9Z"/></g></g></g></g></g></svg>